<?xml version="1.0" encoding="utf-8"?>
<!-- Generator: Adobe Illustrator 21.1.0, SVG Export Plug-In . SVG Version: 6.00 Build 0)  -->
<svg version="1.1" id="Layer_1" xmlns="http://www.w3.org/2000/svg" xmlns:xlink="http://www.w3.org/1999/xlink" x="0px" y="0px"
	 viewBox="0 0 200 300" style="enable-background:new 0 0 200 300;" xml:space="preserve">
<style type="text/css">
	.st0{fill:#FFFFFF;}
	.st1{opacity:0.4;clip-path:url(#SVGID_2_);fill:#CDB8DA;}
	.st2{clip-path:url(#SVGID_2_);fill:#A05EA6;}
	.st3{clip-path:url(#SVGID_2_);fill:#FFFFFF;}
	.st4{clip-path:url(#SVGID_2_);}
	.st5{fill:#571B5E;}
	.st6{opacity:0.53;clip-path:url(#SVGID_2_);fill:#A05EA6;}
	.st7{opacity:0.25;clip-path:url(#SVGID_2_);fill:#A05EA6;}
	.st8{opacity:0.49;clip-path:url(#SVGID_2_);fill:#A05EA6;}
	.st9{fill:#BF79B3;}
	.st10{clip-path:url(#SVGID_2_);fill:none;stroke:#A05EA6;stroke-width:0.5;stroke-miterlimit:10;}
	.st11{opacity:0.28;clip-path:url(#SVGID_2_);fill:#E7E2EC;}
	.st12{opacity:0.37;}
	.st13{fill:#CDB8DA;}
	.st14{font-family:'FuturaPT-Book';}
	.st15{font-size:19.1347px;}
	.st16{font-size:7.9728px;}
	.st17{clip-path:url(#SVGID_4_);}
	.st18{opacity:0.4;clip-path:url(#SVGID_6_);fill:#CDB8DA;}
	.st19{clip-path:url(#SVGID_6_);fill:#A05EA6;}
	.st20{clip-path:url(#SVGID_6_);fill:#FFFFFF;}
	.st21{clip-path:url(#SVGID_6_);}
	.st22{font-size:10.4674px;}
	.st23{opacity:0.53;clip-path:url(#SVGID_6_);fill:#A05EA6;}
	.st24{opacity:0.25;clip-path:url(#SVGID_6_);fill:#A05EA6;}
	.st25{opacity:0.49;clip-path:url(#SVGID_6_);fill:#A05EA6;}
	.st26{font-size:12.5608px;}
	.st27{clip-path:url(#SVGID_6_);fill:none;stroke:#A05EA6;stroke-width:0.5;stroke-miterlimit:10;}
	.st28{opacity:0.28;clip-path:url(#SVGID_6_);fill:#E7E2EC;}
</style>
<g>
	<g class="st12">
		<path class="st13" d="M38.2,271.4c0-21.6,35.2-59.9,70.8-59.9c4.4,0,8,1,10.9,3.2c2.4-1.4,4.6-2,6.2-2c1.7,0,2,0.7,1.7,1.4
			c-1.5,0-3.3,0.7-5.8,2.5c2.7,3.2,4.2,8,4.2,14.8c0,13.5-12.8,28.9-23.1,28.9c-3.1,0-5.2-1.1-6.6-2.7c-0.3-0.4-0.5-0.8-0.5-1.2
			c0-0.2,0.1-0.6,0.4-0.8c0.7,0.7,1.9,1.6,4.1,1.6c6.4,0,22.5-13.7,22.5-30.1c0-3.8-0.9-6.8-2.6-9.2c-1.3,1.2-2.8,2.6-4.5,4.5
			c-8.6,9.7-23.7,36.5-35.3,49.8c-8.6,9.9-17.3,16.5-27,16.5C47.9,288.5,38.2,284,38.2,271.4z M75.9,267.7
			c8.6-10,20.9-30.5,30.5-41.3c4.4-5,8.4-8.6,11.9-10.7c-2.4-1.8-5.6-2.7-9.4-2.7c-35,0-68.9,39-68.9,58.5
			c0,10.1,5.7,13.6,11.6,13.6C58.3,285,65.4,279.9,75.9,267.7z"/>
	</g>
	<text transform="matrix(1 0 0 1 61.4675 255.0703)" class="st14 st15">POLISHED</text>
	<text transform="matrix(1 0 0 1 111.8562 265.7949)" class="st14 st16">NAIL SALON</text>
</g>
<g>
	<defs>
		<rect id="SVGID_3_" width="200" height="200"/>
	</defs>
	<clipPath id="SVGID_2_">
		<use xlink:href="#SVGID_3_"  style="overflow:visible;"/>
	</clipPath>
	<g class="st4">
		<defs>
			<rect id="SVGID_5_" x="-5.4" y="-61.5" width="210.3" height="278.9"/>
		</defs>
		<clipPath id="SVGID_4_">
			<use xlink:href="#SVGID_5_"  style="overflow:visible;"/>
		</clipPath>
		<rect x="-5.4" y="-61.5" style="opacity:0.4;clip-path:url(#SVGID_4_);fill:#CDB8DA;" width="210.3" height="278.9"/>
		<polyline style="clip-path:url(#SVGID_4_);fill:#A05EA6;" points="116.4,-61.5 204.9,187.1 204.9,156.5 132.3,-61.5 130.1,-61.5 
					"/>
		<path style="clip-path:url(#SVGID_4_);fill:#FFFFFF;" d="M154.1,48.1l-2.5,2.6c0,0,1.3,1.6,1.3,2.6c0,0-0.7,0.7-1.3,2.3
			c0,0-2.2,7.9,7.8,7.2l0.8,0.8V48.1C160.2,48.1,157.1,51,154.1,48.1z"/>
		<path style="clip-path:url(#SVGID_4_);fill:#FFFFFF;" d="M166.3,48.1l2.5,2.6c0,0-1.3,1.6-1.3,2.6c0,0,0.7,0.7,1.3,2.3
			c0,0,2.2,7.9-7.8,7.2l-0.8,0.8V48.1C160.2,48.1,163.3,51,166.3,48.1z"/>
		<g class="st17">
			<text transform="matrix(1 0 0 1 154.3523 59.5137)" class="st5 st14 st22">52</text>
		</g>
		<path style="clip-path:url(#SVGID_4_);fill:#A05EA6;" d="M-18.6,157.4c0,0,104.6,2,115.7,4.5c0,0,34.3,2.5,132-2.3v12.1
			c0,0-61.7,2-77.9,2c0,0-103-1.3-132.7-2h-34.2h-2.9V157.4z"/>
		<path style="clip-path:url(#SVGID_4_);fill:#A05EA6;" d="M-16,179.8c0,0,34.8-1.5,83.3-1.5c0,0,13.5,0,35.9,0
			c0,0,96.6-2,126.9-5.1v11.7c0,0-211.7,5.2-246.1,5.2V179.8z"/>
		<path style="clip-path:url(#SVGID_4_);fill:#A05EA6;" d="M-12.4,171.1c-0.1,44.1,9.8,86.7,52.2,107.5c-7.5-1.5-5.9,5.3-12,3
			c-24.4-9.1-41.3-41.2-45.1-66.4C-19.9,198.2-24.4,160.6-12.4,171.1z"/>
		<path style="clip-path:url(#SVGID_4_);fill:#A05EA6;" d="M-16,196.4l19.1-12l12.4-0.1c0,0-13.8,6.9-31.5,24.6V196.4z"/>
		<path style="clip-path:url(#SVGID_4_);fill:#A05EA6;" d="M-25.1-22.2c0,0,37.4,49.7,55.5,85.6l-2.3,6.3l3.9,15.1
			c0,0-1.4,60.9,3.9,73.4l5,4.3c0,0-3.2-19,46,116.2h9.6c0,0-41.7-105.8-46.8-115.5l3.2-6.6c0,0-6.1-38.1-4.5-66.6l-2.2-15.2l-2.9-8
			l-6.2-5.4c0,0-38.5-72.3-62.2-92.7V-22.2z"/>
		<polygon style="clip-path:url(#SVGID_4_);fill:#A05EA6;" points="41.4,111 108.5,161 128,171.1 105.4,170.9 41.6,122.3 		"/>
		<path style="opacity:0.53;clip-path:url(#SVGID_4_);fill:#A05EA6;" d="M57.7-63.1c5.3,5.8-10.1-4.2-4.5,1.6
			C119.7,7,126.8,72.7,145.9,163.7c1.9,8.8,7.9,5.2,7.9,1.8C143.8,84.3,120.7-20.1,57.7-63.1z"/>
		<polygon style="opacity:0.25;clip-path:url(#SVGID_4_);fill:#A05EA6;" points="91.4,68.1 105.8,64 126.8,137.3 109.1,143.9 		"/>
		<circle style="opacity:0.49;clip-path:url(#SVGID_4_);fill:#A05EA6;" cx="109.4" cy="103.5" r="1.8"/>
		<path style="clip-path:url(#SVGID_4_);fill:#A05EA6;" d="M109.4,103.5c0,0-1.7-9.7-4.4-12.3c0,0-2.4-3-2.4-6.1
			c0,0,0.1-7.2,6.6-7.2h1.3c0,0,4.6-0.2,5.7,4.9c0,0,1,3.1-0.5,5.4c0,0-4,5.7-4.6,8.6C111,96.8,109.6,101.8,109.4,103.5z"/>
		<polygon style="opacity:0.25;clip-path:url(#SVGID_4_);fill:#A05EA6;" points="51,26.2 79.5,10.7 87.2,26.2 59.2,44.1 		"/>
		<path style="opacity:0.53;clip-path:url(#SVGID_4_);fill:#A05EA6;" d="M161.1,181.6c0,0,4.8,43.3,39.1,84.9l29.3,32.5h-11.4
			c0,0-27.9-27.4-35.2-39.8c0,0-31.6-47.8-31.6-77.4L161.1,181.6z"/>
		<path style="clip-path:url(#SVGID_4_);fill:#A05EA6;" d="M133.2,184.7c0,0,15,8.4,22.6,20.5l8.4,20.5c0,0-34.5-38.4-47.7-38.4
			L133.2,184.7z"/>
		<g class="st17">
			<text transform="matrix(1 0 0 1 38.7224 169.7451)" class="st0 st14 st26">37th St NW</text>
		</g>
		<g class="st17">
			<text transform="matrix(0.9998 -1.771006e-02 1.771006e-02 0.9998 93.9515 187.0655)" class="st0 st14 st26">37th St NW</text>
		</g>
		<g class="st17">
			<text transform="matrix(6.909998e-02 0.9976 -0.9976 6.909998e-02 33.6064 67.3208)" class="st0 st14 st22">Marketplace Dr NW</text>
		</g>
		<g class="st17">
			<text transform="matrix(1 0 0 1 65.4968 127.7549)" class="st9 st14 st22">Panera Bread</text>
		</g>
		<g class="st17">
			<text transform="matrix(1 0 0 1 54.0037 78.1973)" class="st9 st14 st22">Chipotle</text>
		</g>
		<g class="st17">
			<text transform="matrix(1 0 0 1 17.1472 17.7275)" class="st9 st14 st22">Applebee’s</text>
		</g>
		
			<rect x="-5.4" y="-61.5" style="clip-path:url(#SVGID_4_);fill:none;stroke:#A05EA6;stroke-width:0.5;stroke-miterlimit:10;" width="210.3" height="278.9"/>
		<polyline style="clip-path:url(#SVGID_4_);fill:#A05EA6;" points="131.9,-83.1 205.1,123.6 204.9,87.5 147.8,-83.1 145.6,-83.1 		
			"/>
		<path style="opacity:0.53;clip-path:url(#SVGID_4_);fill:#A05EA6;" d="M148.1,19.7c0,0-134.2-199.8-126.9-155.8l18.2-25.4
			L143.5-2.6L148.1,19.7z"/>
		<path style="opacity:0.53;clip-path:url(#SVGID_4_);fill:#A05EA6;" d="M204.9,22.4c1.2,1.9-128.7-211.7-120.1-160.7l16.2-19.6
			L205.1,8.8L204.9,22.4z"/>
	</g>
</g>
</svg>
