<?xml version="1.0" encoding="utf-8"?>
<!-- Generator: Adobe Illustrator 21.1.0, SVG Export Plug-In . SVG Version: 6.00 Build 0)  -->
<svg version="1.1" id="Layer_1" xmlns="http://www.w3.org/2000/svg" xmlns:xlink="http://www.w3.org/1999/xlink" x="0px" y="0px"
	 viewBox="0 0 1200 300" style="enable-background:new 0 0 1200 300;" xml:space="preserve">
<style type="text/css">
	.st0{fill:#3C8CB6;}
	.st1{clip-path:url(#SVGID_2_);}
	.st2{fill:none;}
	.st3{fill:#FFFFFF;}
	.st4{font-family:'Polly-Regular';}
	.st5{font-size:36px;}
	.st6{font-size:48px;}
	.st7{font-size:21px;}
	.st8{clip-path:url(#SVGID_2_);fill:#12578E;}
	.st9{font-family:'Futura-CondensedMedium';}
	.st10{font-size:18px;}
	.st11{clip-path:url(#SVGID_2_);fill:#FFFFFF;}
	.st12{font-size:14px;}
	.st13{fill:#B2D6F1;}
	.st14{fill:none;stroke:#000000;stroke-width:2;stroke-miterlimit:10;}
	.st15{clip-path:url(#SVGID_2_);fill:#B2D6F1;}
	.st16{fill:#1B75BC;}
	.st17{fill:#010101;}
	.st18{clip-path:url(#SVGID_2_);fill:#27AAE1;}
	.st19{clip-path:url(#SVGID_4_);}
	.st20{clip-path:url(#SVGID_6_);fill:#010101;}
	.st21{clip-path:url(#SVGID_2_);fill:#1B75BC;}
	.st22{clip-path:url(#SVGID_8_);}
	.st23{clip-path:url(#SVGID_10_);fill:#010101;}
	.st24{clip-path:url(#SVGID_12_);}
	.st25{clip-path:url(#SVGID_14_);fill:#010101;}
	.st26{clip-path:url(#SVGID_16_);}
	.st27{clip-path:url(#SVGID_18_);fill:#010101;}
	.st28{clip-path:url(#SVGID_20_);}
	.st29{clip-path:url(#SVGID_22_);fill:#010101;}
	.st30{clip-path:url(#SVGID_24_);}
	.st31{clip-path:url(#SVGID_26_);fill:#010101;}
	.st32{clip-path:url(#SVGID_28_);}
	.st33{clip-path:url(#SVGID_30_);fill:#010101;}
	.st34{clip-path:url(#SVGID_32_);}
	.st35{clip-path:url(#SVGID_34_);fill:#010101;}
	.st36{clip-path:url(#SVGID_36_);}
	.st37{clip-path:url(#SVGID_38_);fill:#010101;}
	.st38{clip-path:url(#SVGID_40_);}
	.st39{clip-path:url(#SVGID_42_);fill:#010101;}
	.st40{clip-path:url(#SVGID_44_);}
	.st41{clip-path:url(#SVGID_46_);fill:#010101;}
	.st42{clip-path:url(#SVGID_48_);}
	.st43{clip-path:url(#SVGID_50_);fill:#010101;}
	.st44{clip-path:url(#SVGID_52_);}
	.st45{clip-path:url(#SVGID_54_);fill:#010101;}
	.st46{fill:#27AAE1;}
	.st47{clip-path:url(#SVGID_56_);}
	.st48{clip-path:url(#SVGID_58_);fill:#010101;}
	.st49{clip-path:url(#SVGID_60_);}
	.st50{clip-path:url(#SVGID_62_);fill:#010101;}
	.st51{clip-path:url(#SVGID_64_);}
	.st52{clip-path:url(#SVGID_66_);fill:#010101;}
	.st53{clip-path:url(#SVGID_68_);}
	.st54{clip-path:url(#SVGID_70_);fill:#010101;}
	.st55{clip-path:url(#SVGID_72_);}
	.st56{clip-path:url(#SVGID_74_);fill:#010101;}
	.st57{clip-path:url(#SVGID_76_);}
	.st58{clip-path:url(#SVGID_78_);fill:#010101;}
	.st59{clip-path:url(#SVGID_80_);}
	.st60{clip-path:url(#SVGID_82_);fill:#010101;}
	.st61{clip-path:url(#SVGID_84_);}
	.st62{clip-path:url(#SVGID_86_);fill:#010101;}
	.st63{clip-path:url(#SVGID_88_);}
	.st64{clip-path:url(#SVGID_90_);fill:#010101;}
	.st65{clip-path:url(#SVGID_92_);}
	.st66{clip-path:url(#SVGID_94_);fill:#010101;}
	.st67{clip-path:url(#SVGID_96_);}
	.st68{clip-path:url(#SVGID_98_);fill:#010101;}
	.st69{clip-path:url(#SVGID_100_);}
	.st70{clip-path:url(#SVGID_102_);fill:#010101;}
</style>
<rect x="0" y="0" class="st0" width="1200" height="300"/>
<g>
	<defs>
		<rect id="SVGID_1_" x="0" y="0" width="1200" height="300"/>
	</defs>
	<clipPath id="SVGID_2_">
		<use xlink:href="#SVGID_1_"  style="overflow:visible;"/>
	</clipPath>
	<g class="st1">
		<rect x="338.2" y="121.9" class="st2" width="386.7" height="84.8"/>
		<text transform="matrix(1 0 0 1 338.226 155.5253)"><tspan x="0" y="0" class="st3 st4 st5">Ending the Silence:</tspan><tspan x="354.4" y="0" class="st3 st4 st6"> </tspan><tspan x="0" y="39" class="st3 st4 st7">Discussion on Mental Health</tspan></text>
	</g>
	<rect x="338.2" y="40" class="st8" width="220.9" height="38.1"/>
	<g class="st1">
		<text transform="matrix(1 0 0 1 344.0054 66.6272)" class="st3 st9 st10">MENTAL HEALTH AWARENESS MONTH</text>
	</g>
	<g class="st1">
		<rect x="338.2" y="218.1" class="st2" width="135.9" height="21"/>
		<text transform="matrix(1 0 0 1 338.2261 232.8435)" class="st3 st4 st7">3/30/2017</text>
	</g>
	<g class="st1">
		<rect x="474.1" y="218" class="st2" width="128.8" height="21"/>
		<text transform="matrix(1 0 0 1 474.0921 232.7307)" class="st3 st4 st7">5:30 - 6:30</text>
	</g>
	<g class="st1">
		<rect x="632.9" y="217.7" class="st2" width="325.6" height="26.5"/>
		<text transform="matrix(1 0 0 1 632.8538 232.4355)" class="st3 st4 st7">Rochester Public Library</text>
	</g>
	<circle class="st11" cx="456.7" cy="227.5" r="2.7"/>
	<circle class="st11" cx="611.6" cy="225.8" r="2.7"/>
	<g class="st1">
		<text transform="matrix(1 0 0 1 338.2254 108.8374)" class="st3 st4 st12">Rochester Public Library and NAMI present</text>
	</g>
	<g class="st1">
		<path class="st13" d="M792.3,51.3c-1.7,0.1-3,1.5-2.9,3.2c0.1,1.7,1.5,3,3.2,2.9c1.7-0.1,3-1.5,2.9-3.2
			C795.4,52.5,794,51.2,792.3,51.3z"/>
		<path class="st13" d="M793,76.5c0.1,1.7,1.6,3,3.2,2.9c1.7-0.1,3-1.5,2.9-3.2c-0.1-1.7-1.5-3-3.2-2.9
			C794.2,73.3,792.9,74.8,793,76.5z"/>
		<path class="st13" d="M768.9,49.3c-1.7,0.1-3,1.5-2.9,3.2c0.1,1.7,1.5,3,3.2,2.9c1.7-0.1,3-1.5,2.9-3.2
			C772.1,50.5,770.6,49.2,768.9,49.3z"/>
		<path class="st13" d="M781.9,33c-13.2,0.7-24.8,11.3-26.7,22.4c-0.4,2.5-0.7,8.8-0.7,8.8l-5.2,15.6c-0.1,0.3-0.1,0.6-0.1,0.9
			c0.1,1.3,1.2,2.3,2.5,2.2l3.9-0.2L756,91c0.4,6.3,5.8,11.2,12.1,10.8l4.6-0.3l0.5,8.9l31-1.7L802.8,84c6.5-5.7,10.4-14.2,9.8-23.5
			C811.7,44.4,798,32.1,781.9,33z M762,69.7c-1.8,0.1-3.3-1.3-3.4-3.1c-0.1-1.8,1.3-3.3,3.1-3.4c1.8-0.1,3.3,1.3,3.4,3.1
			C765.1,68,763.7,69.6,762,69.7z M804.6,62.9l-2.9,3.2l-3.8-2.4c-0.7,0.4-1.4,0.7-2.2,1l-0.5,4.1l1.4-0.1l0.5,2.1
			c0.2,0,0.3,0,0.4,0.1c0.4,0.1,0.7,0.3,1.1,0.5l1.6-1.3l1.5,1.3l-1.2,1.8c0.3,0.5,0.5,1,0.7,1.5l2.1,0.2l0.1,2l-2.1,0.5
			c0,0.2,0,0.3-0.1,0.5c-0.1,0.4-0.3,0.8-0.5,1.1l1.3,1.6l-1.3,1.5l-1.8-1.2c-0.5,0.3-1,0.5-1.5,0.7l-0.2,2.1l-2,0.1l-0.5-2.1
			c-0.2,0-0.3,0-0.5-0.1c-0.4-0.1-0.7-0.3-1.1-0.5l-1.6,1.3l-1.5-1.3l1.2-1.8c-0.3-0.5-0.5-1-0.7-1.5l-2.1-0.2l-0.1-2l2.1-0.5
			c0-0.2,0-0.3,0.1-0.5c0.1-0.4,0.3-0.7,0.5-1.1l-1.3-1.6l1.3-1.5l1.8,1.2c0.5-0.3,1-0.5,1.5-0.7l0.2-1.8l-3.7,0.2l-1-4.4
			c-0.2,0-0.3-0.1-0.5-0.1c-0.6-0.2-1.2-0.4-1.7-0.7l-3.4,2.7l-3.2-2.9l2.4-3.8c-0.4-0.7-0.7-1.4-1-2.2l-4.3-0.5l-0.2-3.5l-2.1,0.5
			c0,0.1,0,0.2-0.1,0.3c-0.1,0.4-0.3,0.7-0.5,1.1l1.8,2.2l-1.9,2.1l-2.5-1.6c-0.4,0.3-0.9,0.5-1.4,0.6l-0.3,2.8l-2.8,0.2l-0.7-2.9
			c-0.1,0-0.2,0-0.3-0.1c-0.4-0.1-0.8-0.3-1.1-0.5l-2.3,1.8l-2.1-1.9l1.6-2.5c-0.3-0.4-0.5-0.9-0.6-1.4l-2.9-0.3l-0.2-2.8l2.9-0.7
			c0-0.1,0-0.2,0.1-0.3c0.1-0.4,0.3-0.8,0.5-1.1l-1.8-2.2l1.9-2.1l2.5,1.6c0.4-0.3,0.9-0.5,1.4-0.6l0.3-2.8l2.8-0.2l0.7,2.9
			c0.1,0,0.2,0,0.3,0.1c0.4,0.1,0.8,0.3,1.1,0.5l2.2-1.8l2.1,1.9l-1.6,2.5c0.3,0.4,0.5,0.9,0.6,1.4l2.8,0.3l0.1,2l3.6-0.8
			c0-0.2,0.1-0.3,0.1-0.5c0.2-0.6,0.4-1.2,0.7-1.7l-2.7-3.4l2.9-3.2l3.8,2.4c0.7-0.4,1.4-0.7,2.2-1l0.5-4.3l4.3-0.2l1,4.4
			c0.2,0,0.3,0.1,0.5,0.1c0.6,0.2,1.2,0.4,1.7,0.7l3.4-2.7l3.2,2.9l-2.4,3.8c0.4,0.7,0.7,1.4,1,2.2l4.3,0.5l0.2,4.3l-4.4,1
			c0,0.2-0.1,0.3-0.1,0.5c-0.2,0.6-0.4,1.2-0.7,1.7L804.6,62.9z"/>
	</g>
	<g class="st1">
		<path class="st14" d="M790.7,49c-1.7,0.1-3,1.5-2.9,3.2c0.1,1.7,1.5,3,3.2,2.9c1.7-0.1,3-1.5,2.9-3.2
			C793.9,50.2,792.4,48.9,790.7,49z"/>
		<path class="st14" d="M791.4,74.2c0.1,1.7,1.6,3,3.2,2.9c1.7-0.1,3-1.5,2.9-3.2c-0.1-1.7-1.5-3-3.2-2.9
			C792.6,71.1,791.3,72.5,791.4,74.2z"/>
		<path class="st14" d="M767.4,47c-1.7,0.1-3,1.5-2.9,3.2c0.1,1.7,1.5,3,3.2,2.9c1.7-0.1,3-1.5,2.9-3.2
			C770.5,48.2,769.1,46.9,767.4,47z"/>
		<path class="st14" d="M780.4,30.7c-13.2,0.7-24.8,11.3-26.7,22.4c-0.4,2.5-0.7,8.8-0.7,8.8l-5.2,15.6c-0.1,0.3-0.1,0.6-0.1,0.9
			c0.1,1.3,1.2,2.3,2.5,2.2l3.9-0.2l0.5,8.1c0.4,6.3,5.8,11.2,12.1,10.8l4.6-0.3l0.5,8.9l31-1.7l-1.4-24.7
			c6.5-5.7,10.4-14.2,9.8-23.5C810.2,42.1,796.4,29.8,780.4,30.7z M760.4,67.4c-1.8,0.1-3.3-1.3-3.4-3.1c-0.1-1.8,1.3-3.3,3.1-3.4
			c1.8-0.1,3.3,1.3,3.4,3.1C763.6,65.7,762.2,67.3,760.4,67.4z M803.1,60.6l-2.9,3.2l-3.8-2.4c-0.7,0.4-1.4,0.7-2.2,1l-0.5,4.1
			l1.4-0.1l0.5,2.1c0.2,0,0.3,0,0.4,0.1c0.4,0.1,0.7,0.3,1.1,0.5l1.6-1.3l1.5,1.3l-1.2,1.8c0.3,0.5,0.5,1,0.7,1.5l2.1,0.2l0.1,2
			l-2.1,0.5c0,0.2,0,0.3-0.1,0.5c-0.1,0.4-0.3,0.8-0.5,1.1l1.3,1.6l-1.3,1.5l-1.8-1.2c-0.5,0.3-1,0.5-1.5,0.7l-0.2,2.1l-2,0.1
			l-0.5-2.1c-0.2,0-0.3,0-0.5-0.1c-0.4-0.1-0.7-0.3-1.1-0.5l-1.6,1.3l-1.5-1.3l1.2-1.8c-0.3-0.5-0.5-1-0.7-1.5l-2.1-0.2l-0.1-2
			l2.1-0.5c0-0.2,0-0.3,0.1-0.5c0.1-0.4,0.3-0.7,0.5-1.1l-1.3-1.6l1.3-1.5l1.8,1.2c0.5-0.3,1-0.5,1.5-0.7l0.2-1.8l-3.7,0.2l-1-4.4
			c-0.2,0-0.3-0.1-0.5-0.1c-0.6-0.2-1.2-0.4-1.7-0.7l-3.4,2.7l-3.2-2.9l2.4-3.8c-0.4-0.7-0.7-1.4-1-2.2l-4.3-0.5l-0.2-3.5l-2.1,0.5
			c0,0.1,0,0.2-0.1,0.3c-0.1,0.4-0.3,0.7-0.5,1.1l1.8,2.2l-1.9,2.1l-2.5-1.6c-0.4,0.3-0.9,0.5-1.4,0.6l-0.3,2.8l-2.8,0.2l-0.7-2.9
			c-0.1,0-0.2,0-0.3-0.1c-0.4-0.1-0.8-0.3-1.1-0.5l-2.3,1.8l-2.1-1.9l1.6-2.5c-0.3-0.4-0.5-0.9-0.6-1.4l-2.9-0.3l-0.2-2.8l2.9-0.7
			c0-0.1,0-0.2,0.1-0.3c0.1-0.4,0.3-0.8,0.5-1.1l-1.8-2.2l1.9-2.1l2.5,1.6c0.4-0.3,0.9-0.5,1.4-0.6l0.3-2.8l2.8-0.2l0.7,2.9
			c0.1,0,0.2,0,0.3,0.1c0.4,0.1,0.8,0.3,1.1,0.5l2.2-1.8l2.1,1.9l-1.6,2.5c0.3,0.4,0.5,0.9,0.6,1.4l2.8,0.3l0.1,2l3.6-0.8
			c0-0.2,0.1-0.3,0.1-0.5c0.2-0.6,0.4-1.2,0.7-1.7l-2.7-3.4l2.9-3.2l3.8,2.4c0.7-0.4,1.4-0.7,2.2-1l0.5-4.3l4.3-0.2l1,4.4
			c0.2,0,0.3,0.1,0.5,0.1c0.6,0.2,1.2,0.4,1.7,0.7l3.4-2.7l3.2,2.9l-2.4,3.8c0.4,0.7,0.7,1.4,1,2.2l4.3,0.5l0.2,4.3l-4.4,1
			c0,0.2-0.1,0.3-0.1,0.5c-0.2,0.6-0.4,1.2-0.7,1.7L803.1,60.6z"/>
	</g>
	<path class="st15" d="M201.4,264C201.4,264,201.4,264,201.4,264c0.3,5.1,4.5,9.1,9.5,9.3c1.8,3.5,5.5,5.7,9.6,5.5
		c3.3-0.2,6.1-2,7.7-4.5c2,2.3,5,3.7,8.3,3.5c4-0.3,7.5-2.9,8.8-6.7c4.9-0.9,8.5-5.4,8.1-10.5c0,0,0,0,0,0c2.4-2,3.7-5.1,3.5-8.2
		c-0.1-1.8-0.7-3.5-1.7-4.9c0.8-1.6,1.1-3.3,1-5.1c-0.2-3.3-2-6.2-4.7-7.8c0.1-0.6,0.1-1.3,0.1-1.9c-0.2-3.2-1.9-6-4.5-7.7
		c0,0,0,0,0,0c-0.2-3.3-2-6.2-4.8-7.9c-1.3-4.5-5.5-7.5-10.3-7.2c-3.3,0.2-6.1,2-7.7,4.5c-2-2.3-5-3.7-8.3-3.5
		c-4.7,0.3-8.5,3.9-9.2,8.5c-2.5,2-3.9,5.2-3.7,8.4c0,0,0,0,0,0c-2.4,2-3.7,5.1-3.5,8.2c0,0.6,0.1,1.2,0.3,1.9
		c-2.5,2-3.9,5.1-3.6,8.4c0.1,1.8,0.7,3.5,1.7,4.9c-0.8,1.6-1.1,3.3-1,5.1C197.1,259.5,198.8,262.3,201.4,264z"/>
	<path class="st1" d="M194.7,260.9C194.7,260.9,194.7,260.9,194.7,260.9c0.3,5.1,4.5,9.1,9.5,9.3c1.8,3.5,5.5,5.7,9.6,5.5
		c3.3-0.2,6.1-2,7.7-4.5c2,2.3,5,3.7,8.3,3.5c4-0.3,7.5-2.9,8.8-6.7c4.9-0.9,8.5-5.4,8.1-10.5c0,0,0,0,0,0c2.4-2,3.7-5.1,3.5-8.2
		c-0.1-1.8-0.7-3.5-1.7-4.9c0.8-1.6,1.1-3.3,1-5.1c-0.2-3.3-2-6.2-4.7-7.8c0.1-0.6,0.1-1.3,0.1-1.9c-0.2-3.2-1.9-6-4.5-7.7
		c0,0,0,0,0,0c-0.2-3.3-2-6.2-4.8-7.9c-1.3-4.5-5.5-7.5-10.3-7.2c-3.3,0.2-6.1,2-7.7,4.5c-2-2.3-5-3.7-8.3-3.5
		c-4.7,0.3-8.5,3.9-9.2,8.5c-2.5,2-3.9,5.2-3.7,8.4c0,0,0,0,0,0c-2.4,2-3.7,5.1-3.5,8.2c0,0.6,0.1,1.2,0.3,1.9
		c-2.5,2-3.9,5.1-3.6,8.4c0.1,1.8,0.7,3.5,1.7,4.9c-0.8,1.6-1.1,3.3-1,5.1C190.4,256.4,192.1,259.2,194.7,260.9z M222.8,262.3
		l1.6-0.9c0.5-0.3,1.1-0.5,1.8-0.5l2.6-0.2c1.1-0.1,1.9-1,1.9-2.1s-1-1.9-2.1-1.9l-2.6,0.2c-1.2,0.1-2.3,0.4-3.4,1l-0.9-13.5
		c1.8-0.9,3.9-1.5,5.9-1.7c1.1-0.1,1.9-1,1.9-2.1c-0.1-1.1-1-1.9-2.1-1.9c-2,0.1-4,0.6-5.9,1.4l-0.9-14.3c1.4,0.8,2.9,1.2,4.6,1.1
		l3.5-0.2c1.1-0.1,1.9-1,1.9-2.1c-0.1-1.1-1-1.9-2.1-1.9l-3.5,0.2c-1.1,0.1-2.1-0.3-2.9-1l-1.8-1.5l-0.2-3.2
		c-0.2-3.3,2.3-6.2,5.6-6.4c2.6-0.2,4.9,1.3,5.9,3.6l-3.6,0.2c0,0,0,0,0,0c-1.1,0.1-1.9,1-1.9,2.1c0.1,1.1,1,1.9,2.1,1.9l5.9-0.4
		c0,0,0,0,0,0c0.2,0,0.3,0,0.5-0.1c1.1,1,1.8,2.4,1.9,3.9c0,0.1,0,0.2,0,0.3l-2.1,3c-1,1.5-1.5,3.2-1.4,5l-6,0.4
		c-1.1,0.1-1.9,1-1.9,2.1c0.1,1.1,1,1.9,2.1,1.9l6-0.4l0.1,2c0.1,1.1,1,1.9,2.1,1.9s1.9-1,1.9-2.1l-0.4-5.9
		c-0.1-0.9,0.2-1.8,0.7-2.5l1.3-1.9c1.2,1,1.9,2.5,2,4.1c0,0.7,0,1.4-0.2,2.1c-0.3,1,0.2,2,1.2,2.4c2.2,0.9,3.6,2.9,3.7,5.2
		c0,0.7,0,1.4-0.2,2l-7.6,0.5c-1.1,0.1-1.9,1-1.9,2.1c0.1,1.1,1,1.9,2.1,1.9l6.5-0.4c0.1,0.1,0.1,0.2,0.2,0.2c0.9,1,1.5,2.3,1.6,3.7
		c0.1,1.4-0.3,2.7-1,3.8c-1.6-2.1-4.1-3.4-7-3.2l-4,0.3c-1.1,0.1-2.1-0.8-2.1-1.9c-0.1-1.1-1-1.9-2.1-1.9c-1.1,0.1-1.9,1-1.9,2.1
		c0.2,3.3,3.1,5.8,6.4,5.6l4-0.3c2.2-0.1,4.1,1.5,4.3,3.7c0.2,2.7-1.5,5.2-4,6.1l-0.8-3.1c-0.3-1.1-1.4-1.7-2.5-1.4
		c-1.1,0.3-1.7,1.4-1.4,2.5l1.1,3.9c0,0,0,0.1,0,0.1c-0.5,2.7-2.8,4.7-5.5,4.9c-0.4,0-0.7,0-1.1,0l2.3-2.6c0.7-0.8,0.6-2.1-0.2-2.8
		c-0.8-0.7-2.1-0.6-2.8,0.2l-3,3.4c-0.9-1-1.5-2.3-1.6-3.7L222.8,262.3z M199.6,244.6L194,245c-0.3-0.6-0.4-1.3-0.5-2
		c-0.2-2.3,1-4.5,3-5.6c0.9-0.5,1.3-1.6,0.8-2.6c-0.3-0.7-0.5-1.4-0.5-2.1c-0.1-1.5,0.4-2.9,1.2-4l4.4,6.4c0.1,0.1,0.1,0.1,0.2,0.2
		c0.4,0.4,0.9,0.8,1.4,1.2l-2.2,2.5c-0.7,0.8-0.6,2.1,0.2,2.8c0.4,0.4,0.9,0.5,1.5,0.5c0.5,0,1-0.3,1.4-0.7l3.2-3.7c0.3,0,0.7,0,1,0
		l2.1-0.1c1.1-0.1,1.9-1,1.9-2.1c-0.1-1.1-1-1.9-2.1-1.9l-2.1,0.1c-1.2,0.1-2.3-0.4-3.1-1.2l-5.3-7.8c0-0.2-0.1-0.3-0.1-0.5
		c-0.1-2,0.7-3.9,2.3-5.1l3.6,1.5c0.3,0.1,0.6,0.2,0.9,0.2c0.7,0,1.4-0.5,1.7-1.2c0.4-1-0.1-2.2-1.1-2.6l-3.5-1.5
		c0.8-2.2,2.8-3.7,5.2-3.9c3.3-0.2,6.2,2.3,6.4,5.6l0.5,7.4c-1.4-0.8-2.9-1.2-4.6-1.1l-1.5,0.1c-1.1,0.1-1.9,1-1.9,2.1
		c0.1,1.1,1,1.9,2.1,1.9l1.5-0.1c1.1-0.1,2.1,0.3,2.9,1l1.8,1.5l0.8,11.8c-1.6,0.6-3.5,0.6-5.1-0.1c-1-0.4-2.2,0.1-2.6,1.1
		c-0.4,1,0.1,2.2,1.1,2.6c1.6,0.7,3.3,0.9,5,0.8c0.7,0,1.3-0.2,2-0.3l0.5,7.2l-4.3,0.3c-1.5,0.1-2.9-0.7-3.7-2l-1.5-2.6
		c-0.6-1-1.8-1.3-2.7-0.7c-1,0.6-1.3,1.8-0.7,2.7l1.5,2.6c1.5,2.6,4.4,4.1,7.4,3.9l4.3-0.3l0.5,8c0.2,2.6-1.4,4.9-3.6,5.9l-0.2-3.2
		c-0.1-2.1-1.1-4.1-2.7-5.5l-2.4-2.1c-0.8-0.7-2.1-0.6-2.8,0.2c-0.7,0.8-0.6,2.1,0.2,2.8l2.4,2.1c0.8,0.7,1.3,1.7,1.4,2.7l0.2,3.2
		c-1.9-0.5-3.4-2-4.1-3.9c-0.3-0.9-1.1-1.4-2-1.4c0,0,0,0-0.1,0l-0.2,0c-3.3,0.2-6.2-2.3-6.4-5.6c0-0.1,0-0.1,0-0.2l3.2-3.6
		c0.7-0.8,0.6-2.1-0.2-2.8c-0.8-0.7-2.1-0.6-2.8,0.2l-2.6,2.9c-1.2-1-2-2.5-2.1-4.2c-0.1-1.4,0.3-2.7,1.1-3.8
		c0.1-0.1,0.1-0.2,0.2-0.3l4.5-0.3c1.1-0.1,1.9-1,1.9-2.1S200.7,244.5,199.6,244.6z"/>
	<path class="st16" d="M274.2,89.9l0.8,1.3l0.6,1.5l0.5,1.5l0.5,1.5l0.4,1.6l0.2,1.6l0.2,1.6l0.1,1.6l-0.1,1.6l-0.1,1.6l-0.2,1.4
		l-0.3,1.6l-0.5,1.5l-0.5,1.4l-0.6,1.4l-0.8,1.4l-0.8,1.4l-0.9,1.3l-0.9,1.3l-1,1.3l-1,1.1l-1.2,1.1l-1.2,1l-1.3,1l-1.3,0.9
		l-1.4,0.9l-1.7,1l-1.7,0.8l-1.8,0.8l-1.8,0.7l-1.8,0.6l-1.8,0.4l-2,0.4l-1.8,0.3l1.5,0.8l1.6,0.7l1.6,0.6l1.6,0.6l1.7,0.5l1.8,0.3
		l1.8,0.3l1.8,0.2l1.8,0.1l1.8-0.1l1.8-0.1l1.8-0.2l1.7-0.3l1.7-0.3l1.7-0.5l1.7-0.6l1.7-0.6l8.3,4.7l-4.2-6.7l1.3-0.9l1.2-0.9
		l1.2-1l1-1l1-1.1l0.9-1.1l0.9-1.1l0.8-1.3l0.8-1.3l0.6-1.3l0.5-1.3l0.3-1.3l0.3-1.3l0.2-1.3l0.1-1.3l-0.1-1.3l-0.1-1.3l-0.2-1.3
		l-0.4-1.3l-0.4-1.3l-0.5-1.3l-0.6-1.3l-0.6-1.2l-0.8-1.2l-1.1-1.5l-0.9-1.1l-1.1-1.1l-1.2-1.1l-1.1-0.8l-1.2-1l-1.4-0.8l-1.4-0.8
		l-1.4-0.7l-1.5-0.7l-1.5-0.6L274.2,89.9 M269.6,87l1.8,0.3l1.8,0.5l1.8,0.5l1.8,0.6l1.8,0.7l1.6,0.7l1.6,0.9l1.6,1l1.5,1l1.2,1
		l1.2,1l1.1,1.1l1.1,1.1l0.9,1.2l0.9,1.2l0.8,1.2l0.8,1.3l0.6,1.3l0.5,1.3l0.5,1.3l0.4,1.3l0.2,1.4l0.1,1.4l0.1,1.4l-0.1,1.4
		l-0.2,1.4l-0.2,1.4l-0.3,1.4l-0.5,1.3l-0.5,1.2l-0.6,1.3l-0.8,1.3l-0.8,1.3l-0.9,1.1l-1,1.1l-1,1.1l-1.2,1l-1.2,1.1l-1.3,0.9
		l7.7,12.4l-15.2-8.5l-1.7,0.6l-1.7,0.5l-1.8,0.4l-1.8,0.3l-1.8,0.2l-1.8,0.2l-1.7,0.1l-1.8-0.1l-1.8-0.2l-1.8-0.2l-1.8-0.3
		l-1.8-0.5l-1.8-0.5l-1.6-0.6l-1.6-0.7l-1.6-0.7l-1.6-0.9l-1.5-1l-1.5-1l-1.5-1.1l2,0l2-0.2l2-0.3l2-0.3l1.8-0.4l1.8-0.6l1.8-0.6
		l1.8-0.7l1.7-0.8l1.4-0.7l1.4-0.9l1.3-0.9l1.3-1l1.2-1l1.2-1.1l1-1.1l1-1.1l0.9-1.3l0.9-1.3l0.8-1.4l0.6-1.4l0.6-1.4l0.5-1.4
		l0.3-1.6l0.3-1.6l0.2-1.6l0.1-1.6l-0.1-1.6l-0.1-1.6l-0.2-1.6l-0.4-1.5l-0.4-1.5l-0.5-1.5l-0.6-1.5l-0.8-1.3l-0.8-1.3l-0.9-1.3
		L269.6,87"/>
	<polyline class="st16" points="220,118.8 218.8,117.8 217.7,116.7 216.8,115.6 215.7,114.4 215,113.2 214.2,111.8 213.4,110.5 
		212.9,109.2 212.4,107.8 211.9,106.4 211.6,104.9 211.3,103.5 211.3,102 211.3,100.5 211.4,99 211.6,97.6 211.9,96.2 212.3,94.7 
		212.9,93.3 213.5,92 214.1,90.8 214.9,89.5 215.7,88.2 216.8,87.1 217.8,86.1 218.8,84.9 220.3,83.8 221.7,82.7 223.1,81.7 
		224.7,80.9 226.4,80 228,79.3 229.7,78.7 231.5,78.2 233.2,77.7 235,77.4 236.8,77.1 238.7,76.9 240.6,76.8 242.4,76.8 244.4,77 
		246.2,77.1 248.1,77.4 249.9,77.9 251.7,78.4 253.5,79 255.3,79.6 257,80.3 258.7,81.2 260.3,82.1 261.5,83 262.7,83.8 263.8,84.8 
		265,85.7 266.1,86.8 267,87.9 267.9,89.1 268.7,90.2 269.5,91.4 270.2,92.6 270.7,93.8 271.2,95.2 271.7,96.5 272,97.8 272.2,99.3 
		272.3,100.7 272.4,102.2 272.3,103.6 272.3,105 271.9,106.5 271.6,107.7 271.1,109.2 270.6,110.6 270,111.9 269.3,113.1 
		268.4,114.4 267.5,115.6 266.6,116.7 265.6,117.7 264.6,118.7 263.4,119.7 262.3,120.6 261,121.3 259.7,122.2 258.1,123 
		256.4,123.7 254.7,124.4 253,125 251.2,125.5 249.4,125.9 247.6,126.2 245.7,126.4 243.8,126.6 241.8,126.5 240,126.5 238.1,126.3 
		236.3,126 234.3,125.7 232.6,125.2 230.8,124.7 229,124 227.2,123.3 211.3,130.4 220,118.8 	"/>
	<path d="M277.3,87l0.8,1.3l0.6,1.5l0.5,1.5l0.5,1.5l0.4,1.6l0.2,1.6l0.2,1.6l0.1,1.6l-0.1,1.6l-0.1,1.6l-0.2,1.4l-0.3,1.6l-0.5,1.5
		l-0.5,1.4l-0.6,1.4l-0.8,1.4l-0.8,1.4l-0.9,1.3l-0.9,1.3l-1,1.3l-1,1.1l-1.2,1.1l-1.2,1l-1.3,1l-1.3,0.9l-1.4,0.9l-1.7,1l-1.7,0.8
		l-1.8,0.8l-1.8,0.7l-1.8,0.6l-1.8,0.4l-2,0.4l-1.8,0.3l1.5,0.8l1.6,0.7l1.6,0.6l1.6,0.6l1.7,0.5l1.8,0.3l1.8,0.3l1.8,0.2l1.8,0.1
		l1.8-0.1l1.8-0.1l1.8-0.2l1.7-0.3l1.7-0.3l1.7-0.5l1.7-0.6l1.7-0.6l8.3,4.7l-4.2-6.7l1.3-0.9l1.2-0.9l1.2-1l1-1l1-1.1l0.9-1.1
		l0.9-1.1l0.8-1.3l0.8-1.3l0.6-1.3l0.5-1.3l0.3-1.3l0.3-1.3l0.2-1.3l0.1-1.3l-0.1-1.3l-0.1-1.3l-0.2-1.3l-0.4-1.3l-0.4-1.3l-0.5-1.3
		l-0.6-1.3l-0.6-1.2l-0.8-1.2l-1.1-1.5l-0.9-1.1l-1.1-1.1l-1.2-1.1l-1.1-0.8l-1.2-1l-1.4-0.8l-1.4-0.8l-1.4-0.7l-1.5-0.7l-1.5-0.6
		L277.3,87 M272.7,84.1l1.8,0.3l1.8,0.5l1.8,0.5l1.8,0.6l1.8,0.7l1.6,0.7l1.6,0.9l1.6,1l1.5,1l1.2,1l1.2,1l1.1,1.1l1.1,1.1l0.9,1.2
		l0.9,1.2l0.8,1.2l0.8,1.3l0.6,1.3l0.5,1.3l0.5,1.3l0.4,1.3l0.2,1.4l0.1,1.4l0.1,1.4l-0.1,1.4l-0.2,1.4l-0.2,1.4l-0.3,1.4l-0.5,1.3
		l-0.5,1.2l-0.6,1.3l-0.8,1.3l-0.8,1.3l-0.9,1.1l-1,1.1l-1,1.1l-1.2,1l-1.2,1.1l-1.3,0.9l7.7,12.4l-15.2-8.5l-1.7,0.6l-1.7,0.5
		l-1.8,0.4l-1.8,0.3l-1.8,0.2l-1.8,0.2l-1.7,0.1l-1.8-0.1l-1.8-0.2l-1.8-0.2l-1.8-0.3l-1.8-0.5l-1.8-0.5l-1.6-0.6l-1.6-0.7l-1.6-0.7
		l-1.6-0.9l-1.5-1l-1.5-1l-1.5-1.1l2,0l2-0.2l2-0.3l2-0.3l1.8-0.4l1.8-0.6l1.8-0.6l1.8-0.7l1.7-0.8l1.4-0.7l1.4-0.9l1.3-0.9l1.3-1
		l1.2-1l1.2-1.1l1-1.1l1-1.1l0.9-1.3l0.9-1.3l0.8-1.4l0.6-1.4l0.6-1.4l0.5-1.4l0.3-1.6l0.3-1.6l0.2-1.6l0.1-1.6l-0.1-1.6l-0.1-1.6
		l-0.2-1.6l-0.4-1.5l-0.4-1.5l-0.5-1.5l-0.6-1.5l-0.8-1.3l-0.8-1.3l-0.9-1.3L272.7,84.1"/>
	<polyline class="st14" points="223.2,115.9 222,114.9 220.9,113.8 220,112.7 218.9,111.5 218.1,110.3 217.3,108.9 216.6,107.6 
		216.1,106.3 215.6,104.9 215.1,103.5 214.7,102 214.5,100.6 214.4,99.1 214.5,97.6 214.5,96.1 214.7,94.7 215.1,93.3 215.4,91.8 
		216,90.4 216.7,89.1 217.3,87.9 218,86.6 218.9,85.3 219.9,84.2 221,83.2 222,82 223.4,80.9 224.9,79.8 226.3,78.8 227.9,78 
		229.6,77.1 231.1,76.4 232.8,75.8 234.7,75.3 236.4,74.8 238.2,74.5 240,74.2 241.8,74 243.8,73.9 245.6,73.9 247.5,74.1 
		249.3,74.2 251.3,74.5 253.1,75 254.8,75.5 256.6,76.1 258.4,76.7 260.2,77.4 261.8,78.3 263.5,79.2 264.7,80.1 265.9,80.9 
		267,81.9 268.2,82.8 269.3,83.9 270.2,85 271.1,86.2 271.9,87.3 272.7,88.5 273.3,89.7 273.8,90.9 274.3,92.3 274.8,93.6 
		275.2,94.9 275.4,96.4 275.5,97.8 275.6,99.3 275.5,100.7 275.4,102.1 275.1,103.6 274.8,104.8 274.3,106.3 273.8,107.7 273.2,109 
		272.4,110.2 271.6,111.5 270.7,112.7 269.8,113.8 268.8,114.8 267.8,115.8 266.6,116.8 265.4,117.7 264.2,118.4 262.9,119.3 
		261.3,120.1 259.6,120.8 257.9,121.5 256.2,122.1 254.4,122.6 252.5,123 250.7,123.3 248.9,123.5 246.9,123.7 245,123.6 
		243.2,123.6 241.2,123.4 239.4,123.1 237.5,122.8 235.7,122.3 233.9,121.8 232.1,121.1 230.4,120.4 214.5,127.5 223.2,115.9 	"/>
	<g class="st1">
		<path class="st16" d="M1043.6,213c0.2-5.7-1.9-11.4-5.7-15.6c-3.8-4.1-9-6.4-14.6-6.6c-4.1,0-7.7,0.9-10.9,2.9
			c-0.9-1-2.4-2.5-3.4-3.2c-8.2-6.4-19.5-6.1-27,0.8c-5,4.6-7.2,10.9-6.5,18.6c0.4,4.6,2.4,9.5,5.3,13.4c-0.3,2,0.2,4,1.4,5.6
			c1,1.3,2.3,2.1,3.7,2.4c-0.1,1.6,0.4,3.3,1.3,4.4c0.9,1.2,2.3,2.1,3.8,2.4c-0.1,1.6,0.4,3.4,1.4,4.6c0.9,1.2,2.6,2.5,4.3,2.9
			c0.2,1.9,0.8,4.1,3.2,5.3c0.3,0.2,1.1,0.5,2,0.7c1.2,0.2,2.7,0.1,4.2-0.9c0.1-0.1,0.4-0.3,0.7-0.5c3.1-2.1,5.4-3.9,6.5-5.5
			c1.6,0.8,3.7,1.1,5.3,0.3c1.9-1,2.8-2.7,3-4.5c1.6,0.4,3.6,0,4.8-0.9c1.3-0.9,2.2-2.7,2.3-4.4c1.5,0.2,3.4,0.2,5.2-1.2
			c1.7-1.4,2-3.5,1.9-4.8C1040.5,225,1043.4,219.1,1043.6,213z"/>
		<path class="st17" d="M1033.8,210.8c0.2-5.7-1.9-11.4-5.7-15.6c-3.8-4.1-9-6.4-14.6-6.6c-4.1,0-7.7,0.9-10.9,2.9
			c-0.9-1-2.4-2.5-3.4-3.2c-8.2-6.4-19.5-6.1-27,0.8c-5,4.6-7.2,10.9-6.5,18.6c0.4,4.6,2.4,9.5,5.3,13.4c-0.3,2,0.2,4,1.4,5.6
			c1,1.3,2.3,2.1,3.7,2.4c-0.1,1.6,0.4,3.3,1.3,4.4c0.9,1.2,2.3,2.1,3.8,2.4c-0.1,1.6,0.4,3.4,1.4,4.6c0.9,1.2,2.6,2.5,4.3,2.9
			c0.2,1.9,0.8,4.1,3.2,5.3c0.3,0.2,1.1,0.5,2,0.7c1.2,0.2,2.7,0.1,4.2-0.9c0.1-0.1,0.4-0.3,0.7-0.5c3.1-2.1,5.4-3.9,6.5-5.5
			c1.6,0.8,3.7,1.1,5.3,0.3c1.9-1,2.8-2.7,3-4.5c1.6,0.4,3.6,0,4.8-0.9c1.3-0.9,2.2-2.7,2.3-4.4c1.5,0.2,3.4,0.2,5.2-1.2
			c1.7-1.4,2-3.5,1.9-4.8C1030.8,222.7,1033.6,216.9,1033.8,210.8z M974.2,225.3c-0.9-1.1-1.2-2.5-1-3.8l8.2-5.9
			c0.8-0.4,3.1-1,4.5,1.3c1.2,2,0.2,3.6-0.1,3.9l-8.7,6.2C976,226.9,975,226.3,974.2,225.3z M978.4,228.8l8.6-6.2
			c0.5-0.2,2.9-1,4.1,0.6c1.2,1.6,0.6,3.5,0.3,4.1l-9.2,6.5c-1.2-0.1-2.3-0.7-3-1.6C978.5,231.3,978.2,229.9,978.4,228.8z
			 M983.5,235.6l9.2-6.5c0.7,0,2.9,0,3.9,1.6c0.7,1.1,0.3,2.8,0.1,3.6l-9,7c-1.1-0.3-2.5-1.2-3.3-2.2
			C983.7,238.3,983.3,236.7,983.5,235.6z M995.8,246.1c-0.4,0.3-0.7,0.5-0.7,0.5c-1.7,1.1-3.5,0.4-4,0.1c-1-0.5-1.8-1.4-2-3.7l9-7
			c1.3-0.5,2.9,0.7,3.4,1.5c0.7,1.1,0.7,2.6,0.6,3.1C1001.9,241.4,1000.5,242.8,995.8,246.1z M1022.7,230c-1.6,1.2-3.5,0.8-4.5,0.5
			l-11.2-15.6c-0.4-0.5-1.1-0.6-1.6-0.2c-0.5,0.4-0.6,1.1-0.3,1.6l11.3,15.8c0.5,1-0.1,2.8-1.2,3.6c-1,0.7-3.1,0.9-3.9,0.1
			c0,0,0,0,0,0l-11.4-16.2c-0.4-0.5-1.1-0.6-1.6-0.3c-0.5,0.4-0.6,1.1-0.3,1.6l11.5,16.3c0.2,1.4-0.2,3-1.7,3.8
			c-0.8,0.5-2.5,0.2-3.5-0.5c0-0.9-0.2-2.5-1-3.9c-0.8-1.3-2.5-2.6-4.3-2.8c0.2-1.2,0.2-2.7-0.6-4.1c-1.2-1.9-3.2-2.5-4.6-2.7
			c0.3-1.3,0.4-3.3-1-5.1c-1.2-1.7-2.9-2-4.4-1.9c0.3-1.2,0.2-2.7-0.7-4.3c-2-3.4-5.7-3.1-7.5-2c0,0-0.1,0-0.1,0.1l-7.7,5.6
			c-2.5-3.5-4.2-7.7-4.5-11.7c-0.7-7.1,1.2-12.5,5.8-16.7c6.7-6.2,16.8-6.5,24.1-0.7c0.7,0.6,2,1.9,2.9,2.7l-13.1,9.6
			c-0.4,0.2-2.2,1.5-2.5,3.5c-0.2,1.3,0.2,2.6,1.2,3.8c3.1,3.7,8.5,4.1,12.9,1.1c1.9-1.3,6.5-4.7,8.5-6.1l16,22.4
			C1023.8,227.5,1023.9,229.1,1022.7,230z M1024.9,224.9l-16-22.5c-0.2-0.2-0.4-0.4-0.7-0.5l0,0c-0.3,0-0.6,0-0.8,0.2
			c-0.1,0.1-7,5.1-9.4,6.8c-3.4,2.4-7.6,2.1-10-0.7c-0.6-0.7-0.8-1.3-0.7-1.9c0.1-1,1.1-1.7,1.5-2c0,0,0,0,0.1,0l14.2-10.3
			c2.9-2,6.4-3,10.3-3c5,0.1,9.7,2.2,13,5.9c3.5,3.7,5.3,8.8,5.1,13.9C1031.4,216,1029,221.1,1024.9,224.9z"/>
	</g>
	
		<rect x="879.4" y="83.7" transform="matrix(0.9788 -0.205 0.205 0.9788 0.9425 186.6942)" class="st18" width="43.8" height="10.2"/>
	<g class="st1">
		<g>
			<defs>
				
					<rect id="SVGID_3_" x="874.8" y="65.5" transform="matrix(0.9767 -0.2146 0.2146 0.9767 2.2129 194.351)" width="43.1" height="43.1"/>
			</defs>
			<clipPath id="SVGID_4_">
				<use xlink:href="#SVGID_3_"  style="overflow:visible;"/>
			</clipPath>
			<g class="st19">
				<defs>
					
						<rect id="SVGID_5_" x="874.8" y="65.5" transform="matrix(0.9767 -0.2146 0.2146 0.9767 2.2128 194.351)" width="43.1" height="43.1"/>
				</defs>
				<clipPath id="SVGID_6_">
					<use xlink:href="#SVGID_5_"  style="overflow:visible;"/>
				</clipPath>
				<path class="st20" d="M914.8,77l-18,3.9l-21.2,4.7l-0.4,0.1c-0.6,0.1-1,0.7-0.8,1.3l2,9.2c0.1,0.6,0.7,1,1.3,0.8l18-3.9
					l21.2-4.7l0.4-0.1c0.3-0.1,0.5-0.2,0.6-0.4c0.2-0.2,0.3-0.5,0.2-0.9l-2-9.2C916,77.2,915.4,76.8,914.8,77 M878.3,94.7l-1.6-7.1
					l16.9-3.7l20.6-4.5l1.6,7.1l-16.9,3.7L878.3,94.7z"/>
			</g>
		</g>
	</g>
	<path class="st21" d="M312.5,285c0,0-0.1-0.1-0.1-0.1c-7.3-6-14.7-12.1-22-18.1c-0.9-0.7-1.7-1.4-2.6-2.2c-0.8-0.6-1.5-1.3-2.5-1.7
		c-1.6-0.6-3.5-0.2-4.7,0.9c-1.3,1.2-1.8,3-1.4,4.7c0.5,2,2.4,3.1,3.9,4.4c6.5,5.4,13,10.8,19.6,16.1c0.8,0.7,1.6,1.3,2.4,2
		c0.7,0.6,1.4,1.2,2.2,1.7c1.3,0.7,3,0.6,4.2,0C314.4,291.2,314.9,287.2,312.5,285z"/>
	<g class="st1">
		<g>
			<defs>
				
					<rect id="SVGID_7_" x="274.5" y="252.8" transform="matrix(0.6524 -0.7579 0.7579 0.6524 -105.1645 320.2166)" width="44" height="44"/>
			</defs>
			<clipPath id="SVGID_8_">
				<use xlink:href="#SVGID_7_"  style="overflow:visible;"/>
			</clipPath>
			<g class="st22">
				<defs>
					
						<rect id="SVGID_9_" x="274.5" y="252.8" transform="matrix(0.6524 -0.7579 0.7579 0.6524 -105.1645 320.2164)" width="44" height="44"/>
				</defs>
				<clipPath id="SVGID_10_">
					<use xlink:href="#SVGID_9_"  style="overflow:visible;"/>
				</clipPath>
				<path class="st23" d="M312.6,282.3c0,0-0.1-0.1-0.1-0.1l-22-18.9l-2.6-2.3c-0.8-0.7-1.5-1.4-2.5-1.8c-1.6-0.6-3.5-0.3-4.8,0.8
					c-1.4,1.2-1.9,3-1.5,4.8c0.5,2,2.4,3.2,3.9,4.5l19.6,16.9l2.4,2.1c0.7,0.6,1.4,1.3,2.2,1.7c1.3,0.7,3,0.7,4.3,0.1
					C314.5,288.7,315,284.6,312.6,282.3 M309.4,288.4c-0.9,0-1.5-0.5-2.1-1l-10.9-9.4l-11-9.5l-2.6-2.3c-0.7-0.6-1.3-1.1-1.5-2
					c-0.3-1.5,0.7-2.9,2.2-3.1c1.1-0.2,1.9,0.5,2.7,1.2l3.5,3l7.2,6.2l14.3,12.3c1.1,1,1.1,2.7,0.1,3.8
					C310.7,288.2,310,288.4,309.4,288.4"/>
			</g>
		</g>
	</g>
	<circle class="st18" cx="297.8" cy="192.2" r="10.7"/>
	<g class="st1">
		<g>
			<defs>
				<rect id="SVGID_11_" x="284.2" y="179.2" width="22" height="22"/>
			</defs>
			<clipPath id="SVGID_12_">
				<use xlink:href="#SVGID_11_"  style="overflow:visible;"/>
			</clipPath>
			<g class="st24">
				<defs>
					<rect id="SVGID_13_" x="284.2" y="179.2" width="22" height="22"/>
				</defs>
				<clipPath id="SVGID_14_">
					<use xlink:href="#SVGID_13_"  style="overflow:visible;"/>
				</clipPath>
				<path class="st25" d="M301.9,181.5c-2.7-2.1-6.3-2.8-9.6-1.9c-3.2,0.8-5.9,3.2-7.2,6.2c-1.4,3.2-1.2,6.8,0.5,9.8
					c1.6,2.9,4.6,4.9,7.9,5.4c3.4,0.5,6.8-0.6,9.3-2.9c2.1-2,3.3-4.9,3.3-7.9C306.2,186.8,304.6,183.6,301.9,181.5 M300.7,198.4
					c-2.7,1.8-6.3,2.2-9.3,0.9c-3-1.3-5.2-4-5.8-7.1c-0.7-3.2,0.4-6.6,2.7-9c2.3-2.3,5.7-3.3,8.9-2.7c3.2,0.6,5.8,2.9,7.1,5.8
					c0.5,1.2,0.8,2.5,0.8,3.8C305,193.4,303.4,196.5,300.7,198.4"/>
			</g>
		</g>
	</g>
	<path class="st18" d="M229.6,10.9c-4.2,4.3-8.4,8.5-12.6,12.8c-4.3-4.2-8.5-8.4-12.8-12.6c-0.9-0.9-2.4-0.9-3.3,0
		c-0.9,0.9-0.9,2.4,0,3.3c4.3,4.2,8.5,8.4,12.8,12.6c-4.2,4.3-8.4,8.5-12.6,12.8c-0.9,0.9-0.9,2.4,0,3.3c0.9,0.9,2.4,0.9,3.3,0
		c4.2-4.3,8.4-8.5,12.6-12.8c4.3,4.2,8.5,8.4,12.8,12.6c0.9,0.9,2.4,0.9,3.3,0c0.9-0.9,0.9-2.4,0-3.3c-4.3-4.2-8.5-8.4-12.8-12.6
		c4.2-4.3,8.4-8.5,12.6-12.8c0.9-0.9,0.9-2.4,0-3.3C232,10,230.5,10,229.6,10.9z"/>
	<g class="st1">
		<g>
			<defs>
				<rect id="SVGID_15_" x="197.4" y="8.8" width="34" height="34"/>
			</defs>
			<clipPath id="SVGID_16_">
				<use xlink:href="#SVGID_15_"  style="overflow:visible;"/>
			</clipPath>
			<g class="st26">
				<defs>
					<rect id="SVGID_17_" x="197.4" y="8.8" width="34" height="34"/>
				</defs>
				<clipPath id="SVGID_18_">
					<use xlink:href="#SVGID_17_"  style="overflow:visible;"/>
				</clipPath>
				<path class="st27" d="M231,38.1c-0.4-0.7-1.2-1.3-1.8-1.9c-0.7-0.7-1.5-1.5-2.2-2.2c-2.7-2.7-5.5-5.4-8.2-8.1
					c3.4-3.4,6.7-6.8,10.1-10.2c0.8-0.8,1.8-1.5,2.2-2.6c0.4-0.9,0.3-1.8-0.1-2.7c-0.9-1.8-3.4-2-4.8-0.8c0,0-0.1,0.1-0.1,0.1
					c-3.9,3.9-7.8,7.9-11.6,11.8c-2.6-2.6-5.2-5.2-7.9-7.8c-0.7-0.7-1.4-1.3-2-2c-0.7-0.7-1.4-1.5-2.1-2.1c-1.2-1-2.8-0.8-4,0.1
					c-1.2,0.9-1.3,2.7-0.6,4c0.4,0.7,1.2,1.3,1.8,1.9c0.7,0.7,1.5,1.5,2.2,2.2c2.7,2.7,5.5,5.4,8.2,8.1c-2.6,2.6-5.2,5.2-7.8,7.9
					c-0.7,0.7-1.3,1.4-2,2c-0.7,0.7-1.5,1.4-2.1,2.1c-1,1.2-0.8,2.8,0.1,4c0.9,1.2,2.7,1.3,4,0.6c0.7-0.4,1.3-1.2,1.9-1.8
					c0.7-0.7,1.5-1.5,2.2-2.2c2.7-2.7,5.4-5.5,8.1-8.2c2.6,2.6,5.2,5.2,7.9,7.8c0.7,0.7,1.4,1.3,2,2c0.7,0.7,1.4,1.5,2.1,2.1
					c1.2,1,2.8,0.8,4-0.1C231.6,41.1,231.7,39.3,231,38.1 M229.3,40.8c-1.1,1.2-2.3-0.3-3-1c-1.2-1.2-2.5-2.5-3.7-3.7
					c-2.5-2.5-5.1-5-7.6-7.5c-0.3-0.3-0.9-0.3-1.2,0c-2.5,2.5-4.9,5-7.4,7.5c-1.2,1.2-2.5,2.5-3.7,3.7c-0.8,0.8-2,2.3-3.2,1.2
					c-1.2-1.1,0.3-2.3,1-3c1.2-1.2,2.5-2.5,3.7-3.7c2.5-2.5,5-5.1,7.5-7.6c0.3-0.3,0.3-0.9,0-1.2c-2.5-2.5-5-4.9-7.5-7.4
					c-1.2-1.2-2.5-2.5-3.7-3.7c-0.8-0.8-2.3-2-1.2-3.2c1.1-1.2,2.3,0.3,3,1c1.2,1.2,2.5,2.5,3.7,3.7c2.5,2.5,5.1,5,7.6,7.5
					c0.3,0.3,0.9,0.3,1.2,0c4.1-4.1,8.2-8.3,12.2-12.4c1-0.9,2.6-0.1,2.4,1.3c-0.1,0.8-1,1.4-1.6,1.9c-0.7,0.7-1.5,1.5-2.2,2.2
					c-3,3-5.9,6-8.9,9c-0.3,0.3-0.3,0.9,0,1.2c2.5,2.5,5,4.9,7.5,7.4c1.2,1.2,2.5,2.5,3.7,3.7C229,38.4,230.5,39.5,229.3,40.8"/>
			</g>
		</g>
	</g>
	<path class="st18" d="M773.9,168.9c-12.2,0-22.1,9.9-22.1,22.1H796C796,178.8,786.1,168.9,773.9,168.9z"/>
	<g class="st1">
		<g>
			<defs>
				<rect id="SVGID_19_" x="750.2" y="154.4" width="44" height="44"/>
			</defs>
			<clipPath id="SVGID_20_">
				<use xlink:href="#SVGID_19_"  style="overflow:visible;"/>
			</clipPath>
			<g class="st28">
				<defs>
					<rect id="SVGID_21_" x="750.2" y="154.4" width="44" height="44"/>
				</defs>
				<clipPath id="SVGID_22_">
					<use xlink:href="#SVGID_21_"  style="overflow:visible;"/>
				</clipPath>
				<path class="st29" d="M787.4,170c-4-4.1-9.7-6.4-15.4-6.4c-5.7,0-11.2,2.3-15.3,6.3c-4.1,4-6.4,9.7-6.4,15.4
					c0,0.6,0.5,1.1,1.1,1.1H770h22.1h0.4c0.6,0,1.1-0.5,1.1-1.1C793.6,179.6,791.4,174.1,787.4,170 M752.4,184.2
					c0.3-4.8,2.3-9.2,5.6-12.7c3.6-3.7,8.7-5.8,13.9-5.8c5.2,0,10.1,2,13.8,5.7c3.5,3.4,5.5,8,5.8,12.8h-17.6H752.4z"/>
			</g>
		</g>
	</g>
	<g class="st1">
		<polygon class="st13" points="970.6,103.4 986.3,137.5 1016.2,129.3 		"/>
		<g>
			<g>
				<defs>
					<rect id="SVGID_23_" x="966.5" y="101.5" width="46.9" height="46.9"/>
				</defs>
				<clipPath id="SVGID_24_">
					<use xlink:href="#SVGID_23_"  style="overflow:visible;"/>
				</clipPath>
				<g class="st30">
					<defs>
						<rect id="SVGID_25_" x="966.5" y="101.5" width="46.9" height="46.9"/>
					</defs>
					<clipPath id="SVGID_26_">
						<use xlink:href="#SVGID_25_"  style="overflow:visible;"/>
					</clipPath>
					<path class="st31" d="M1012.7,132.7c-5.4-3.1-10.8-6.1-16.2-9.2c-8.1-4.6-16.2-9.3-24.4-13.9c-1.3-0.7-2.5-1.4-3.8-2.2
						c-0.2-0.3-0.6-0.4-0.9-0.3c-0.8,0.1-1.3,1.1-0.8,1.7c3.1,6.7,6.1,13.3,9.2,20c2,4.4,4.1,8.9,6.1,13.3c0.2,0.4,0.8,0.6,1.2,0.5
						c7.5-2.1,15-4.1,22.4-6.2c2.3-0.6,4.5-1.2,6.8-1.9C1013.4,134.5,1013.6,133.2,1012.7,132.7 M989.4,138.8
						c-2,0.5-3.9,1.1-5.9,1.6c-3-6.5-5.9-12.9-8.9-19.4c-1.5-3.4-3.1-6.7-4.6-10.1c4.4,2.5,8.8,5,13.2,7.5
						c8.1,4.6,16.2,9.3,24.4,13.9c0.6,0.3,1.2,0.7,1.7,1C1002.7,135.1,996.1,137,989.4,138.8"/>
				</g>
			</g>
		</g>
	</g>
	<polygon class="st21" points="632.6,41.6 610.3,61.2 652.3,71.1 	"/>
	<g class="st1">
		<g>
			<defs>
				<rect id="SVGID_27_" x="608.9" y="31.9" width="38.9" height="38.9"/>
			</defs>
			<clipPath id="SVGID_28_">
				<use xlink:href="#SVGID_27_"  style="overflow:visible;"/>
			</clipPath>
			<g class="st32">
				<defs>
					<rect id="SVGID_29_" x="608.9" y="31.9" width="38.9" height="38.9"/>
				</defs>
				<clipPath id="SVGID_30_">
					<use xlink:href="#SVGID_29_"  style="overflow:visible;"/>
				</clipPath>
				<path class="st33" d="M647.4,63.7c-3.4-5-6.7-10.1-10.1-15.1c-2.4-3.6-4.8-7.1-7.2-10.7c-0.2-0.3-0.4-0.4-0.7-0.4
					c-0.2,0-0.5,0-0.7,0.2c-4.8,4.2-9.6,8.4-14.4,12.6c-1.7,1.5-3.4,3-5.1,4.5c-0.5,0.4-0.2,1.4,0.4,1.5l16.1,3.8
					c6.7,1.6,13.3,3.1,20,4.7c0.2,0.1,0.5,0.1,0.7,0.2C647.1,65.2,647.8,64.4,647.4,63.7 M611.7,55c4.4-3.8,8.8-7.7,13.1-11.5
					c1.4-1.3,2.9-2.5,4.3-3.8c3.2,4.7,6.3,9.5,9.5,14.2c2,2.9,3.9,5.9,5.9,8.8c-4.6-1.1-9.2-2.2-13.8-3.2
					C624.4,58,618,56.5,611.7,55"/>
			</g>
		</g>
	</g>
	<path class="st15" d="M879.1,292.4c-3.8,0-7.6,0-11.5,0c0-3.7,0-7.4,0-11c0-1.7-1.4-3.1-3-3.1c-3.9,0-7.7,0-11.6,0
		c0-3.9,0-7.8,0-11.6c0-1.7-1.4-3.1-3-3.1c-4.9,0-9.8,0-14.7,0c-1.7,0-3.1,1.4-3.1,3c0,1.7,1.4,3.1,3,3.1c3.9,0,7.8,0,11.7,0
		c0,3.9,0,7.8,0,11.6c0,1.7,1.4,3.1,3,3.1c3.9,0,7.7,0,11.6,0c0,3.7,0,7.4,0,11c0,1.7,1.4,3.1,3,3.1c4.8,0,9.7,0,14.5,0
		c1.7,0,3.1-1.4,3.1-3C882.2,293.8,880.8,292.4,879.1,292.4z"/>
	<g class="st1">
		<g>
			<defs>
				<rect id="SVGID_31_" x="835.1" y="263.5" width="44.1" height="44.1"/>
			</defs>
			<clipPath id="SVGID_32_">
				<use xlink:href="#SVGID_31_"  style="overflow:visible;"/>
			</clipPath>
			<g class="st34">
				<defs>
					<rect id="SVGID_33_" x="835.1" y="263.5" width="44.1" height="44.1"/>
				</defs>
				<clipPath id="SVGID_34_">
					<use xlink:href="#SVGID_33_"  style="overflow:visible;"/>
				</clipPath>
				<path class="st35" d="M875.5,294.8c-0.1,0-0.1,0-0.2,0h-8.5v-5.3c0-1.9,0.3-3.9-1-5.4c-1.3-1.5-3.7-1.1-5.5-1.1h-5.7v-5.7
					c0-1.9,0.4-4.1-1.2-5.6c-1.4-1.4-3.8-0.9-5.6-0.9h-7c-1.8,0-3.7-0.2-4.9,1.5c-1.1,1.4-0.8,3.3,0.3,4.6c1.3,1.5,3.6,1.1,5.4,1.1
					h5.8v5.7c0,1.9-0.3,3.9,1,5.5c1.3,1.5,3.7,1.1,5.5,1.1h5.7v4.4v2.6c0,0.8-0.1,1.6,0.2,2.4c0.5,1.4,1.7,2.2,3.1,2.3
					c0.8,0.1,1.7,0,2.5,0h2.9h5.5c1.5,0,2.9,0,4-1.1C880.1,298.6,878.3,295.1,875.5,294.8 M875.3,299.9c-2.8,0.1-5.6,0-8.4,0
					c-1.3,0-2.6,0-4,0c-1.1,0-1.3-1.3-1.3-2.1v-8.6c0-0.6-0.5-1-1-1h-5.9h-2.9c-0.7,0-1.4,0.1-1.9-0.5c-0.5-0.5-0.4-1.3-0.4-2v-2.9
					v-5.9c0-0.6-0.5-1-1-1H843h-2.6c-0.7,0-1.7,0.2-2.4-0.2c-1-0.5-1.1-1.9-0.2-2.6c0.5-0.4,1.2-0.3,1.8-0.3h2.9h5.6h2.6
					c0.7,0,1.2,0.1,1.5,0.7c0.4,0.6,0.2,1.3,0.2,2v2.9v5.6c0,0.6,0.5,1,1,1h5.6h2.9c0.7,0,1.5-0.1,2.1,0.3c0.6,0.5,0.6,1.1,0.6,1.8
					v2.9v5.8c0,0.6,0.5,1,1,1h9.6C877.3,296.9,877.2,299.8,875.3,299.9"/>
			</g>
		</g>
	</g>
	<path class="st21" d="M919.5,10.8c0,0-0.1,0-0.1-0.1c-8.7-3.7-17.5-7.5-26.2-11.2c-1-0.4-2.1-0.9-3.1-1.3c-0.9-0.4-1.8-0.9-2.9-0.9
		c-1.7-0.1-3.4,0.7-4.3,2.2c-0.9,1.5-0.9,3.4,0,4.9c1.1,1.8,3.2,2.3,5,3.1c7.8,3.3,15.5,6.7,23.3,10c1,0.4,1.9,0.8,2.9,1.2
		c0.8,0.4,1.7,0.8,2.6,1c1.4,0.3,3-0.2,4.1-1.2C923.1,16.2,922.4,12.3,919.5,10.8z"/>
	<g class="st1">
		<g>
			<defs>
				
					<rect id="SVGID_35_" x="879.3" y="-16.5" transform="matrix(0.4144 -0.9101 0.9101 0.4144 522.84 823.4947)" width="44" height="44"/>
			</defs>
			<clipPath id="SVGID_36_">
				<use xlink:href="#SVGID_35_"  style="overflow:visible;"/>
			</clipPath>
			<g class="st36">
				<defs>
					
						<rect id="SVGID_37_" x="879.3" y="-16.5" transform="matrix(0.4144 -0.9101 0.9101 0.4144 522.8398 823.4946)" width="44" height="44"/>
				</defs>
				<clipPath id="SVGID_38_">
					<use xlink:href="#SVGID_37_"  style="overflow:visible;"/>
				</clipPath>
				<path class="st37" d="M918.9,8.2c0,0-0.1,0-0.1-0.1l-26.4-12l-3.1-1.4c-0.9-0.4-1.9-0.9-2.9-1c-1.7-0.1-3.5,0.7-4.4,2.1
					c-1,1.5-1,3.5-0.1,5c1,1.8,3.2,2.4,5,3.2l23.5,10.7l2.9,1.3c0.9,0.4,1.7,0.8,2.6,1.1c1.4,0.4,3.1-0.2,4.2-1.1
					C922.5,13.8,921.8,9.7,918.9,8.2 M917.5,15c-0.8,0.3-1.6,0-2.3-0.4l-13.1-6l-13.2-6l-3.2-1.4c-0.8-0.4-1.6-0.7-2-1.5
					c-0.7-1.3-0.1-3,1.2-3.6c1.1-0.5,2-0.1,2.9,0.4l4.2,1.9l8.7,4l17.2,7.8c1.4,0.7,1.8,2.3,1.2,3.6C918.7,14.4,918.1,14.8,917.5,15
					"/>
			</g>
		</g>
	</g>
	<g class="st1">
		<polygon class="st16" points="1034.2,38.1 1004.6,36.6 1027.8,73 		"/>
		<g>
			<g>
				<defs>
					
						<rect id="SVGID_39_" x="1005" y="22.6" transform="matrix(0.6973 -0.7168 0.7168 0.6973 279.9956 747.065)" width="38.9" height="38.9"/>
				</defs>
				<clipPath id="SVGID_40_">
					<use xlink:href="#SVGID_39_"  style="overflow:visible;"/>
				</clipPath>
				<g class="st38">
					<defs>
						
							<rect id="SVGID_41_" x="1005" y="22.6" transform="matrix(0.6973 -0.7168 0.7168 0.6973 279.9956 747.0649)" width="38.9" height="38.9"/>
					</defs>
					<clipPath id="SVGID_42_">
						<use xlink:href="#SVGID_41_"  style="overflow:visible;"/>
					</clipPath>
					<path class="st39" d="M1029.4,64.3c1.1-6,2.2-11.9,3.3-17.9c0.8-4.2,1.5-8.4,2.3-12.7c0.1-0.3,0-0.6-0.2-0.8
						c-0.1-0.2-0.4-0.3-0.7-0.3c-6.4-0.3-12.8-0.7-19.1-1c-2.3-0.1-4.5-0.2-6.8-0.3c-0.7,0-1.1,0.8-0.8,1.4l8.9,13.9
						c3.7,5.8,7.4,11.5,11.1,17.3c0.1,0.2,0.3,0.4,0.4,0.6C1028.2,65.1,1029.3,65.1,1029.4,64.3 M1009.9,33.2
						c5.8,0.3,11.6,0.6,17.4,0.9c1.9,0.1,3.8,0.2,5.7,0.3c-1,5.6-2.1,11.2-3.1,16.8c-0.6,3.5-1.3,7-1.9,10.5c-2.5-4-5.1-8-7.6-11.9
						C1016.9,44.2,1013.4,38.7,1009.9,33.2"/>
				</g>
			</g>
		</g>
	</g>
	<circle class="st18" cx="977.9" cy="294.3" r="10.7"/>
	<g class="st1">
		<g>
			<defs>
				<rect id="SVGID_43_" x="964.4" y="281.4" width="22" height="22"/>
			</defs>
			<clipPath id="SVGID_44_">
				<use xlink:href="#SVGID_43_"  style="overflow:visible;"/>
			</clipPath>
			<g class="st40">
				<defs>
					<rect id="SVGID_45_" x="964.4" y="281.4" width="22" height="22"/>
				</defs>
				<clipPath id="SVGID_46_">
					<use xlink:href="#SVGID_45_"  style="overflow:visible;"/>
				</clipPath>
				<path class="st41" d="M982.1,283.7c-2.7-2.1-6.3-2.8-9.6-1.9c-3.2,0.8-5.9,3.2-7.2,6.2c-1.4,3.2-1.2,6.8,0.5,9.8
					c1.6,2.9,4.6,4.9,7.9,5.4c3.4,0.5,6.8-0.6,9.3-2.9c2.1-2,3.3-4.9,3.3-7.9C986.3,289,984.7,285.7,982.1,283.7 M980.8,300.5
					c-2.7,1.8-6.3,2.2-9.3,0.9c-3-1.3-5.2-4-5.8-7.1c-0.7-3.2,0.4-6.6,2.7-9c2.3-2.3,5.7-3.3,8.9-2.7c3.2,0.6,5.8,2.9,7.1,5.8
					c0.5,1.2,0.8,2.5,0.8,3.8C985.2,295.6,983.5,298.7,980.8,300.5"/>
			</g>
		</g>
	</g>
	<path class="st18" d="M297.3-2c-11.8,3.1-18.9,15.2-15.8,27l42.8-11.2C321.2,1.9,309.1-5.1,297.3-2z"/>
	<g class="st1">
		<g>
			<defs>
				
					<rect id="SVGID_47_" x="275.5" y="-16.3" transform="matrix(0.9673 -0.2535 0.2535 0.9673 8.2697 75.5976)" width="44" height="44"/>
			</defs>
			<clipPath id="SVGID_48_">
				<use xlink:href="#SVGID_47_"  style="overflow:visible;"/>
			</clipPath>
			<g class="st42">
				<defs>
					
						<rect id="SVGID_49_" x="275.5" y="-16.3" transform="matrix(0.9673 -0.2535 0.2535 0.9673 8.2697 75.5976)" width="44" height="44"/>
				</defs>
				<clipPath id="SVGID_50_">
					<use xlink:href="#SVGID_49_"  style="overflow:visible;"/>
				</clipPath>
				<path class="st43" d="M310.6-4.3c-4.9-3-11-3.7-16.6-2.3c-5.5,1.5-10.3,5.1-13.2,10c-3,4.9-3.7,11-2.3,16.6
					c0.1,0.6,0.8,0.9,1.3,0.8l18.1-4.8l21.4-5.6l0.4-0.1c0.6-0.1,0.9-0.7,0.8-1.3C319.1,3.3,315.5-1.4,310.6-4.3 M280.4,18.3
					c-0.9-4.7-0.2-9.5,2.2-13.7c2.6-4.5,7-7.8,12-9.1c5-1.3,10.3-0.6,14.8,2c4.2,2.4,7.3,6.4,8.8,10.9l-17,4.5L280.4,18.3z"/>
			</g>
		</g>
	</g>
	<circle class="st18" cx="683.7" cy="2.6" r="10.7"/>
	<g class="st1">
		<g>
			<defs>
				<rect id="SVGID_51_" x="670.2" y="-10.3" width="22" height="22"/>
			</defs>
			<clipPath id="SVGID_52_">
				<use xlink:href="#SVGID_51_"  style="overflow:visible;"/>
			</clipPath>
			<g class="st44">
				<defs>
					<rect id="SVGID_53_" x="670.2" y="-10.3" width="22" height="22"/>
				</defs>
				<clipPath id="SVGID_54_">
					<use xlink:href="#SVGID_53_"  style="overflow:visible;"/>
				</clipPath>
				<path class="st45" d="M687.9-8c-2.7-2.1-6.3-2.8-9.6-1.9c-3.2,0.8-5.9,3.2-7.2,6.2c-1.4,3.2-1.2,6.8,0.5,9.8
					c1.6,2.9,4.6,4.9,7.9,5.4c3.4,0.5,6.8-0.6,9.3-2.9c2.1-2,3.3-4.9,3.3-7.9C692.1-2.7,690.6-5.9,687.9-8 M686.7,8.8
					c-2.7,1.8-6.3,2.2-9.3,0.9c-3-1.3-5.2-4-5.8-7.1c-0.7-3.2,0.4-6.6,2.7-9c2.3-2.3,5.7-3.3,8.9-2.7c3.2,0.6,5.8,2.9,7.1,5.8
					c0.5,1.2,0.8,2.5,0.8,3.8C691,3.9,689.4,7,686.7,8.8"/>
			</g>
		</g>
	</g>
	<g class="st1">
		<circle class="st46" cx="126" cy="140.1" r="10.7"/>
		<g>
			<g>
				<defs>
					<rect id="SVGID_55_" x="112.5" y="127.2" width="22" height="22"/>
				</defs>
				<clipPath id="SVGID_56_">
					<use xlink:href="#SVGID_55_"  style="overflow:visible;"/>
				</clipPath>
				<g class="st47">
					<defs>
						<rect id="SVGID_57_" x="112.5" y="127.2" width="22" height="22"/>
					</defs>
					<clipPath id="SVGID_58_">
						<use xlink:href="#SVGID_57_"  style="overflow:visible;"/>
					</clipPath>
					<path class="st48" d="M130.2,129.5c-2.7-2.1-6.3-2.8-9.6-1.9c-3.2,0.8-5.9,3.2-7.2,6.2c-1.4,3.2-1.2,6.8,0.5,9.8
						c1.6,2.9,4.6,4.9,7.9,5.4c3.4,0.5,6.8-0.6,9.3-2.9c2.1-2,3.3-4.9,3.3-7.9C134.4,134.8,132.8,131.6,130.2,129.5 M129,146.3
						c-2.7,1.8-6.3,2.2-9.3,0.9c-3-1.3-5.2-4-5.8-7.1c-0.7-3.2,0.4-6.6,2.7-9c2.3-2.3,5.7-3.3,8.9-2.7c3.2,0.6,5.8,2.9,7.1,5.8
						c0.5,1.2,0.8,2.5,0.8,3.8C133.3,141.4,131.7,144.5,129,146.3"/>
				</g>
			</g>
		</g>
	</g>
	<g class="st1">
		<path class="st46" d="M48.5,240.4c-4.2,4.3-8.4,8.5-12.6,12.8c-4.3-4.2-8.5-8.4-12.8-12.6c-0.9-0.9-2.4-0.9-3.3,0
			c-0.9,0.9-0.9,2.4,0,3.3c4.3,4.2,8.5,8.4,12.8,12.6c-4.2,4.3-8.4,8.5-12.6,12.8c-0.9,0.9-0.9,2.4,0,3.3c0.9,0.9,2.4,0.9,3.3,0
			c4.2-4.3,8.4-8.5,12.6-12.8c4.3,4.2,8.5,8.4,12.8,12.6c0.9,0.9,2.4,0.9,3.3,0c0.9-0.9,0.9-2.4,0-3.3c-4.3-4.2-8.5-8.4-12.8-12.6
			c4.2-4.3,8.4-8.5,12.6-12.8c0.9-0.9,0.9-2.4,0-3.3C50.9,239.5,49.4,239.5,48.5,240.4z"/>
		<g>
			<g>
				<defs>
					<rect id="SVGID_59_" x="16.3" y="238.4" width="34" height="34"/>
				</defs>
				<clipPath id="SVGID_60_">
					<use xlink:href="#SVGID_59_"  style="overflow:visible;"/>
				</clipPath>
				<g class="st49">
					<defs>
						<rect id="SVGID_61_" x="16.3" y="238.4" width="34" height="34"/>
					</defs>
					<clipPath id="SVGID_62_">
						<use xlink:href="#SVGID_61_"  style="overflow:visible;"/>
					</clipPath>
					<path class="st50" d="M49.9,267.6c-0.4-0.7-1.2-1.3-1.8-1.9c-0.7-0.7-1.5-1.5-2.2-2.2c-2.7-2.7-5.5-5.4-8.2-8.1
						c3.4-3.4,6.7-6.8,10.1-10.2c0.8-0.8,1.8-1.5,2.2-2.6c0.4-0.9,0.3-1.8-0.2-2.7c-0.9-1.8-3.4-2-4.8-0.8c0,0-0.1,0.1-0.1,0.1
						c-3.9,3.9-7.8,7.9-11.6,11.8c-2.6-2.6-5.2-5.2-7.9-7.8c-0.7-0.7-1.4-1.3-2-2c-0.7-0.7-1.4-1.5-2.1-2.1c-1.2-1-2.8-0.8-4,0.1
						c-1.2,0.9-1.3,2.7-0.6,4c0.4,0.7,1.2,1.3,1.8,1.9c0.7,0.7,1.5,1.5,2.2,2.2c2.7,2.7,5.5,5.4,8.2,8.1c-2.6,2.6-5.2,5.2-7.8,7.9
						c-0.7,0.7-1.3,1.4-2,2c-0.7,0.7-1.5,1.4-2.1,2.1c-1,1.2-0.8,2.8,0.1,4c0.9,1.2,2.7,1.3,4,0.6c0.7-0.4,1.3-1.2,1.9-1.8
						c0.7-0.7,1.5-1.5,2.2-2.2c2.7-2.7,5.4-5.5,8.1-8.2c2.6,2.6,5.2,5.2,7.9,7.8c0.7,0.7,1.4,1.3,2,2c0.7,0.7,1.4,1.5,2.1,2.1
						c1.2,1,2.8,0.8,4-0.1C50.5,270.7,50.6,268.9,49.9,267.6 M48.2,270.3c-1.1,1.2-2.3-0.3-3-1c-1.2-1.2-2.5-2.5-3.7-3.7
						c-2.5-2.5-5.1-5-7.6-7.5c-0.3-0.3-0.9-0.3-1.2,0c-2.5,2.5-4.9,5-7.4,7.5c-1.2,1.2-2.5,2.5-3.7,3.7c-0.8,0.8-2,2.3-3.2,1.2
						c-1.2-1.1,0.3-2.3,1-3c1.2-1.2,2.5-2.5,3.7-3.7c2.5-2.5,5-5.1,7.5-7.6c0.3-0.3,0.3-0.9,0-1.2c-2.5-2.5-5-4.9-7.5-7.4
						c-1.2-1.2-2.5-2.5-3.7-3.7c-0.8-0.8-2.3-2-1.2-3.2c1.1-1.2,2.3,0.3,3,1c1.2,1.2,2.5,2.5,3.7,3.7c2.5,2.5,5.1,5,7.6,7.5
						c0.3,0.3,0.9,0.3,1.2,0c4.1-4.1,8.2-8.3,12.2-12.4c1-0.9,2.6-0.1,2.4,1.3c-0.1,0.8-1,1.4-1.6,1.9c-0.7,0.7-1.5,1.5-2.2,2.2
						c-3,3-5.9,6-8.9,9c-0.3,0.3-0.3,0.9,0,1.2c2.5,2.5,5,4.9,7.5,7.4c1.2,1.2,2.5,2.5,3.7,3.7C47.9,267.9,49.4,269,48.2,270.3"/>
				</g>
			</g>
		</g>
	</g>
	<g class="st1">
		<polygon class="st13" points="12.3,79.2 48.1,90.4 62,62.7 		"/>
		<g>
			<g>
				<defs>
					
						<rect id="SVGID_63_" x="17.8" y="55.9" transform="matrix(0.6692 -0.7431 0.7431 0.6692 -45.3009 56.8804)" width="46.9" height="46.9"/>
				</defs>
				<clipPath id="SVGID_64_">
					<use xlink:href="#SVGID_63_"  style="overflow:visible;"/>
				</clipPath>
				<g class="st51">
					<defs>
						
							<rect id="SVGID_65_" x="17.8" y="55.9" transform="matrix(0.6692 -0.7431 0.7431 0.6692 -45.301 56.8804)" width="46.9" height="46.9"/>
					</defs>
					<clipPath id="SVGID_66_">
						<use xlink:href="#SVGID_65_"  style="overflow:visible;"/>
					</clipPath>
					<path class="st52" d="M62.2,67.6c-5.9,1.9-11.8,3.9-17.6,5.8c-8.9,2.9-17.7,5.9-26.6,8.8c-1.4,0.5-2.8,0.9-4.1,1.4
						c-0.4,0-0.7,0.2-0.8,0.5c-0.4,0.6,0,1.7,0.8,1.7c7,2.2,14,4.4,21,6.6c4.7,1.5,9.3,2.9,14,4.4c0.5,0.1,1-0.2,1.2-0.6
						c3.5-6.9,7-13.9,10.4-20.8c1.1-2.1,2.1-4.2,3.2-6.3C63.9,68.3,63.1,67.3,62.2,67.6 M51.1,88.9c-0.9,1.8-1.8,3.6-2.7,5.5
						c-6.8-2.1-13.5-4.2-20.3-6.4c-3.5-1.1-7.1-2.2-10.6-3.3c4.8-1.6,9.6-3.2,14.4-4.8c8.9-2.9,17.7-5.9,26.6-8.8
						c0.6-0.2,1.3-0.4,1.9-0.6C57.3,76.7,54.2,82.8,51.1,88.9"/>
				</g>
			</g>
		</g>
	</g>
	<g class="st1">
		<path class="st46" d="M1121.2,248.2c-11.9-2.5-23.7,5.1-26.2,17.1l43.3,9.1C1140.8,262.4,1133.2,250.7,1121.2,248.2z"/>
		<g>
			<g>
				<defs>
					
						<rect id="SVGID_67_" x="1096" y="233.2" transform="matrix(0.2068 -0.9784 0.9784 0.2068 637.1417 1296.2633)" width="44" height="44"/>
				</defs>
				<clipPath id="SVGID_68_">
					<use xlink:href="#SVGID_67_"  style="overflow:visible;"/>
				</clipPath>
				<g class="st53">
					<defs>
						
							<rect id="SVGID_69_" x="1096" y="233.2" transform="matrix(0.2068 -0.9784 0.9784 0.2068 637.1416 1296.2632)" width="44" height="44"/>
					</defs>
					<clipPath id="SVGID_70_">
						<use xlink:href="#SVGID_69_"  style="overflow:visible;"/>
					</clipPath>
					<path class="st54" d="M1134.2,252.1c-3.1-4.9-8.2-8.3-13.8-9.5c-5.6-1.2-11.5-0.1-16.3,3c-4.9,3.1-8.3,8.2-9.5,13.8
						c-0.1,0.6,0.3,1.2,0.8,1.3l18.4,3.9l21.6,4.6l0.4,0.1c0.6,0.1,1.2-0.2,1.3-0.8C1138.3,262.7,1137.2,256.9,1134.2,252.1
						 M1097,258.7c1.3-4.6,4.1-8.6,8.1-11.2c4.3-2.9,9.7-3.8,14.8-2.8c5,1.1,9.4,4.1,12.3,8.4c2.7,4,3.7,9,3,13.7l-17.2-3.6
						L1097,258.7z"/>
				</g>
			</g>
		</g>
	</g>
	<g class="st1">
		<rect x="88.1" y="5.2" transform="matrix(0.9788 -0.205 0.205 0.9788 0.2189 22.7612)" class="st46" width="43.8" height="10.2"/>
		<g>
			<g>
				<defs>
					
						<rect id="SVGID_71_" x="83.4" y="-13" transform="matrix(0.9767 -0.2146 0.2146 0.9767 0.618 22.7097)" width="43.1" height="43.1"/>
				</defs>
				<clipPath id="SVGID_72_">
					<use xlink:href="#SVGID_71_"  style="overflow:visible;"/>
				</clipPath>
				<g class="st55">
					<defs>
						
							<rect id="SVGID_73_" x="83.4" y="-13" transform="matrix(0.9767 -0.2146 0.2146 0.9767 0.6179 22.7097)" width="43.1" height="43.1"/>
					</defs>
					<clipPath id="SVGID_74_">
						<use xlink:href="#SVGID_73_"  style="overflow:visible;"/>
					</clipPath>
					<path class="st56" d="M123.5-1.5l-18,3.9L84.3,7.1l-0.4,0.1c-0.6,0.1-1,0.7-0.8,1.3l2,9.2c0.1,0.6,0.7,1,1.3,0.8l18-3.9
						l21.2-4.7l0.4-0.1c0.3-0.1,0.5-0.2,0.6-0.4c0.2-0.2,0.3-0.5,0.2-0.9l-2-9.2C124.6-1.2,124-1.6,123.5-1.5 M87,16.2l-1.6-7.1
						l16.9-3.7l20.6-4.5l1.6,7.1l-16.9,3.7L87,16.2z"/>
				</g>
			</g>
		</g>
	</g>
	<g class="st1">
		<path class="st13" d="M137.3,226.6c-3.8,0-7.6,0-11.5,0c0-3.7,0-7.4,0-11c0-1.7-1.4-3.1-3-3.1c-3.9,0-7.7,0-11.6,0
			c0-3.9,0-7.8,0-11.6c0-1.7-1.4-3.1-3-3.1c-4.9,0-9.8,0-14.7,0c-1.7,0-3.1,1.4-3.1,3c0,1.7,1.4,3.1,3,3.1c3.9,0,7.8,0,11.7,0
			c0,3.9,0,7.8,0,11.6c0,1.7,1.4,3.1,3,3.1c3.9,0,7.7,0,11.6,0c0,3.7,0,7.4,0,11c0,1.7,1.4,3.1,3,3.1c4.8,0,9.7,0,14.5,0
			c1.7,0,3.1-1.4,3.1-3C140.3,228,138.9,226.6,137.3,226.6z"/>
		<g>
			<g>
				<defs>
					<rect id="SVGID_75_" x="94.7" y="190.1" width="44.1" height="44.1"/>
				</defs>
				<clipPath id="SVGID_76_">
					<use xlink:href="#SVGID_75_"  style="overflow:visible;"/>
				</clipPath>
				<g class="st57">
					<defs>
						<rect id="SVGID_77_" x="94.7" y="190.1" width="44.1" height="44.1"/>
					</defs>
					<clipPath id="SVGID_78_">
						<use xlink:href="#SVGID_77_"  style="overflow:visible;"/>
					</clipPath>
					<path class="st58" d="M135.1,221.4c-0.1,0-0.1,0-0.2,0h-8.5v-5.3c0-1.9,0.3-3.9-1-5.4c-1.3-1.5-3.7-1.1-5.5-1.1h-5.7v-5.7
						c0-1.9,0.4-4.1-1.2-5.6c-1.4-1.4-3.8-0.9-5.6-0.9h-7c-1.8,0-3.7-0.2-4.9,1.5c-1.1,1.4-0.8,3.3,0.3,4.6c1.3,1.5,3.6,1.1,5.4,1.1
						h5.8v5.7c0,1.9-0.3,3.9,1,5.5c1.3,1.5,3.7,1.1,5.5,1.1h5.7v4.4v2.6c0,0.8-0.1,1.6,0.2,2.4c0.5,1.4,1.7,2.2,3.1,2.3
						c0.8,0.1,1.7,0,2.5,0h2.9h5.5c1.5,0,2.9,0,4-1.1C139.7,225.2,137.9,221.6,135.1,221.4 M134.9,226.4c-2.8,0.1-5.6,0-8.4,0
						c-1.3,0-2.6,0-4,0c-1.1,0-1.3-1.3-1.3-2.1v-8.6c0-0.6-0.5-1-1-1h-5.9h-2.9c-0.7,0-1.4,0.1-1.9-0.5c-0.5-0.5-0.4-1.3-0.4-2v-2.9
						v-5.9c0-0.6-0.5-1-1-1h-5.4H100c-0.7,0-1.7,0.2-2.4-0.2c-1-0.5-1.1-1.9-0.2-2.6c0.5-0.4,1.2-0.3,1.8-0.3h2.9h5.6h2.6
						c0.7,0,1.2,0.1,1.5,0.7c0.4,0.6,0.2,1.3,0.2,2v2.9v5.6c0,0.6,0.5,1,1,1h5.6h2.9c0.7,0,1.5-0.1,2.1,0.3c0.6,0.5,0.6,1.1,0.6,1.8
						v2.9v5.8c0,0.6,0.5,1,1,1h9.6C136.9,223.5,136.8,226.4,134.9,226.4"/>
				</g>
			</g>
		</g>
	</g>
	<g class="st1">
		<path class="st16" d="M1101.9,161c0,0-0.1-0.1-0.1-0.1c-7.3-6-14.7-12.1-22-18.1c-0.9-0.7-1.7-1.4-2.6-2.2
			c-0.8-0.6-1.5-1.3-2.5-1.7c-1.6-0.6-3.5-0.2-4.7,0.9c-1.3,1.2-1.8,3-1.4,4.7c0.5,2,2.4,3.1,3.9,4.4c6.5,5.4,13,10.8,19.6,16.1
			c0.8,0.7,1.6,1.3,2.4,2c0.7,0.6,1.4,1.2,2.2,1.7c1.3,0.7,3,0.6,4.2,0C1103.8,167.2,1104.3,163.2,1101.9,161z"/>
		<g>
			<g>
				<defs>
					
						<rect id="SVGID_79_" x="1063.9" y="128.8" transform="matrix(0.6524 -0.7579 0.7579 0.6524 263.139 875.3792)" width="44" height="44"/>
				</defs>
				<clipPath id="SVGID_80_">
					<use xlink:href="#SVGID_79_"  style="overflow:visible;"/>
				</clipPath>
				<g class="st59">
					<defs>
						
							<rect id="SVGID_81_" x="1063.9" y="128.8" transform="matrix(0.6524 -0.7579 0.7579 0.6524 263.1389 875.3791)" width="44" height="44"/>
					</defs>
					<clipPath id="SVGID_82_">
						<use xlink:href="#SVGID_81_"  style="overflow:visible;"/>
					</clipPath>
					<path class="st60" d="M1102,158.4c0,0-0.1-0.1-0.1-0.1l-22-18.9l-2.6-2.3c-0.8-0.7-1.5-1.4-2.5-1.8c-1.6-0.6-3.5-0.3-4.8,0.8
						c-1.4,1.2-1.9,3-1.5,4.8c0.5,2,2.4,3.2,3.9,4.5l19.6,16.9l2.4,2.1c0.7,0.6,1.4,1.3,2.2,1.7c1.3,0.7,3,0.7,4.3,0.1
						C1103.9,164.7,1104.4,160.6,1102,158.4 M1098.8,164.5c-0.9,0-1.5-0.5-2.1-1l-10.9-9.4l-11-9.5l-2.6-2.3c-0.7-0.6-1.3-1.1-1.5-2
						c-0.3-1.5,0.7-2.9,2.2-3.1c1.1-0.2,1.9,0.5,2.7,1.2l3.5,3l7.2,6.2l14.3,12.3c1.1,1,1.1,2.7,0.1,3.8
						C1100.1,164.2,1099.4,164.4,1098.8,164.5"/>
				</g>
			</g>
		</g>
	</g>
	<g class="st1">
		<polygon class="st13" points="1166.6,85 1157,121.3 1185.3,133.9 		"/>
		<g>
			<g>
				<defs>
					
						<rect id="SVGID_83_" x="1144.4" y="90.5" transform="matrix(0.6345 -0.7729 0.7729 0.6345 338.7965 944.3109)" width="46.9" height="46.9"/>
				</defs>
				<clipPath id="SVGID_84_">
					<use xlink:href="#SVGID_83_"  style="overflow:visible;"/>
				</clipPath>
				<g class="st61">
					<defs>
						
							<rect id="SVGID_85_" x="1144.4" y="90.5" transform="matrix(0.6345 -0.7729 0.7729 0.6345 338.7965 944.3109)" width="46.9" height="46.9"/>
					</defs>
					<clipPath id="SVGID_86_">
						<use xlink:href="#SVGID_85_"  style="overflow:visible;"/>
					</clipPath>
					<path class="st62" d="M1180.5,134.4c-2.2-5.8-4.4-11.6-6.6-17.4c-3.3-8.7-6.7-17.5-10-26.2c-0.5-1.4-1-2.7-1.6-4.1
						c0-0.4-0.2-0.6-0.5-0.8c-0.6-0.4-1.7,0-1.7,0.8c-1.9,7.1-3.7,14.2-5.6,21.3c-1.2,4.7-2.5,9.4-3.7,14.2c-0.1,0.5,0.2,1,0.6,1.2
						c7.1,3.2,14.2,6.3,21.3,9.5c2.1,1,4.3,1.9,6.4,2.9C1179.9,136.1,1180.8,135.3,1180.5,134.4 M1158.7,124.3
						c-1.9-0.8-3.7-1.7-5.6-2.5c1.8-6.9,3.6-13.7,5.4-20.6c0.9-3.6,1.9-7.2,2.8-10.8c1.8,4.7,3.6,9.4,5.4,14.2
						c3.3,8.7,6.7,17.5,10,26.2c0.2,0.6,0.5,1.2,0.7,1.9C1171.2,129.9,1164.9,127.1,1158.7,124.3"/>
				</g>
			</g>
		</g>
	</g>
	<g class="st1">
		<circle class="st46" cx="1140.2" cy="29.2" r="10.7"/>
		<g>
			<g>
				<defs>
					<rect id="SVGID_87_" x="1126.7" y="16.3" width="22" height="22"/>
				</defs>
				<clipPath id="SVGID_88_">
					<use xlink:href="#SVGID_87_"  style="overflow:visible;"/>
				</clipPath>
				<g class="st63">
					<defs>
						<rect id="SVGID_89_" x="1126.7" y="16.3" width="22" height="22"/>
					</defs>
					<clipPath id="SVGID_90_">
						<use xlink:href="#SVGID_89_"  style="overflow:visible;"/>
					</clipPath>
					<path class="st64" d="M1144.4,18.6c-2.7-2.1-6.3-2.8-9.6-1.9c-3.2,0.8-5.9,3.2-7.2,6.2c-1.4,3.2-1.2,6.8,0.5,9.8
						c1.6,2.9,4.6,4.9,7.9,5.4c3.4,0.5,6.8-0.6,9.3-2.9c2.1-2,3.3-4.9,3.3-7.9C1148.6,23.9,1147,20.7,1144.4,18.6 M1143.2,35.4
						c-2.7,1.8-6.3,2.2-9.3,0.9c-3-1.3-5.2-4-5.8-7.1c-0.7-3.2,0.4-6.6,2.7-9c2.3-2.3,5.7-3.3,8.9-2.7c3.2,0.6,5.8,2.9,7.1,5.8
						c0.5,1.2,0.8,2.5,0.8,3.8C1147.5,30.5,1145.9,33.6,1143.2,35.4"/>
				</g>
			</g>
		</g>
	</g>
	<g class="st1">
		<path class="st46" d="M742.1,276.9c-4.2,4.3-8.4,8.5-12.6,12.8c-4.3-4.2-8.5-8.4-12.8-12.6c-0.9-0.9-2.4-0.9-3.3,0
			c-0.9,0.9-0.9,2.4,0,3.3c4.3,4.2,8.5,8.4,12.8,12.6c-4.2,4.3-8.4,8.5-12.6,12.8c-0.9,0.9-0.9,2.4,0,3.3c0.9,0.9,2.4,0.9,3.3,0
			c4.2-4.3,8.4-8.5,12.6-12.8c4.3,4.2,8.5,8.4,12.8,12.6c0.9,0.9,2.4,0.9,3.3,0c0.9-0.9,0.9-2.4,0-3.3c-4.3-4.2-8.5-8.4-12.8-12.6
			c4.2-4.3,8.4-8.5,12.6-12.8c0.9-0.9,0.9-2.4,0-3.3C744.6,276,743,276,742.1,276.9z"/>
		<g>
			<g>
				<defs>
					<rect id="SVGID_91_" x="710" y="274.9" width="34" height="34"/>
				</defs>
				<clipPath id="SVGID_92_">
					<use xlink:href="#SVGID_91_"  style="overflow:visible;"/>
				</clipPath>
				<g class="st65">
					<defs>
						<rect id="SVGID_93_" x="710" y="274.9" width="34" height="34"/>
					</defs>
					<clipPath id="SVGID_94_">
						<use xlink:href="#SVGID_93_"  style="overflow:visible;"/>
					</clipPath>
					<path class="st66" d="M743.5,304.1c-0.4-0.7-1.2-1.3-1.8-1.9c-0.7-0.7-1.5-1.5-2.2-2.2c-2.7-2.7-5.5-5.4-8.2-8.1
						c3.4-3.4,6.7-6.8,10.1-10.2c0.8-0.8,1.8-1.5,2.2-2.6c0.4-0.9,0.3-1.8-0.1-2.7c-0.9-1.8-3.4-2-4.8-0.8c0,0-0.1,0.1-0.1,0.1
						c-3.9,3.9-7.8,7.9-11.6,11.8c-2.6-2.6-5.2-5.2-7.9-7.8c-0.7-0.7-1.4-1.3-2-2c-0.7-0.7-1.4-1.5-2.1-2.1c-1.2-1-2.8-0.8-4,0.1
						c-1.2,0.9-1.3,2.7-0.6,4c0.4,0.7,1.2,1.3,1.8,1.9c0.7,0.7,1.5,1.5,2.2,2.2c2.7,2.7,5.5,5.4,8.2,8.1c-2.6,2.6-5.2,5.2-7.8,7.9
						c-0.7,0.7-1.3,1.4-2,2c-0.7,0.7-1.5,1.4-2.1,2.1c-1,1.2-0.8,2.8,0.1,4c0.9,1.2,2.7,1.3,4,0.6c0.7-0.4,1.3-1.2,1.9-1.8
						c0.7-0.7,1.5-1.5,2.2-2.2c2.7-2.7,5.4-5.5,8.1-8.2c2.6,2.6,5.2,5.2,7.9,7.8c0.7,0.7,1.4,1.3,2,2c0.7,0.7,1.4,1.5,2.1,2.1
						c1.2,1,2.8,0.8,4-0.1C744.1,307.2,744.2,305.4,743.5,304.1 M741.9,306.8c-1.1,1.2-2.3-0.3-3-1c-1.2-1.2-2.5-2.5-3.7-3.7
						c-2.5-2.5-5.1-5-7.6-7.5c-0.3-0.3-0.9-0.3-1.2,0c-2.5,2.5-4.9,5-7.4,7.5c-1.2,1.2-2.5,2.5-3.7,3.7c-0.8,0.8-2,2.3-3.2,1.2
						c-1.2-1.1,0.3-2.3,1-3c1.2-1.2,2.5-2.5,3.7-3.7c2.5-2.5,5-5.1,7.5-7.6c0.3-0.3,0.3-0.9,0-1.2c-2.5-2.5-5-4.9-7.5-7.4
						c-1.2-1.2-2.5-2.5-3.7-3.7c-0.8-0.8-2.3-2-1.2-3.2c1.1-1.2,2.3,0.3,3,1c1.2,1.2,2.5,2.5,3.7,3.7c2.5,2.5,5.1,5,7.6,7.5
						c0.3,0.3,0.9,0.3,1.2,0c4.1-4.1,8.2-8.3,12.2-12.4c1-0.9,2.6-0.1,2.4,1.3c-0.1,0.8-1,1.4-1.6,1.9c-0.7,0.7-1.5,1.5-2.2,2.2
						c-3,3-5.9,6-8.9,9c-0.3,0.3-0.3,0.9,0,1.2c2.5,2.5,5,4.9,7.5,7.4c1.2,1.2,2.5,2.5,3.7,3.7C741.5,304.4,743,305.6,741.9,306.8"
						/>
				</g>
			</g>
		</g>
	</g>
	<g class="st1">
		<circle class="st46" cx="407.6" cy="284" r="10.7"/>
		<g>
			<g>
				<defs>
					<rect id="SVGID_95_" x="394.1" y="271" width="22" height="22"/>
				</defs>
				<clipPath id="SVGID_96_">
					<use xlink:href="#SVGID_95_"  style="overflow:visible;"/>
				</clipPath>
				<g class="st67">
					<defs>
						<rect id="SVGID_97_" x="394.1" y="271" width="22" height="22"/>
					</defs>
					<clipPath id="SVGID_98_">
						<use xlink:href="#SVGID_97_"  style="overflow:visible;"/>
					</clipPath>
					<path class="st68" d="M411.8,273.3c-2.7-2.1-6.3-2.8-9.6-1.9c-3.2,0.8-5.9,3.2-7.2,6.2c-1.4,3.2-1.2,6.8,0.5,9.8
						c1.6,2.9,4.6,4.9,7.9,5.4c3.4,0.5,6.8-0.6,9.3-2.9c2.1-2,3.3-4.9,3.3-7.9C416,278.6,414.4,275.4,411.8,273.3 M410.5,290.1
						c-2.7,1.8-6.3,2.2-9.3,0.9c-3-1.3-5.2-4-5.8-7.1c-0.7-3.2,0.4-6.6,2.7-9c2.3-2.3,5.7-3.3,8.9-2.7c3.2,0.6,5.8,2.9,7.1,5.8
						c0.5,1.2,0.8,2.5,0.8,3.8C414.9,285.2,413.2,288.3,410.5,290.1"/>
				</g>
			</g>
		</g>
	</g>
	<g class="st1">
		<polygon class="st16" points="576.4,288.6 554.1,308.2 596.1,318.1 		"/>
		<g>
			<g>
				<defs>
					<rect id="SVGID_99_" x="552.7" y="278.8" width="38.9" height="38.9"/>
				</defs>
				<clipPath id="SVGID_100_">
					<use xlink:href="#SVGID_99_"  style="overflow:visible;"/>
				</clipPath>
				<g class="st69">
					<defs>
						<rect id="SVGID_101_" x="552.7" y="278.8" width="38.9" height="38.9"/>
					</defs>
					<clipPath id="SVGID_102_">
						<use xlink:href="#SVGID_101_"  style="overflow:visible;"/>
					</clipPath>
					<path class="st70" d="M591.2,310.7c-3.4-5-6.7-10.1-10.1-15.1c-2.4-3.6-4.8-7.1-7.2-10.7c-0.2-0.3-0.4-0.4-0.7-0.4
						c-0.2,0-0.5,0-0.7,0.2c-4.8,4.2-9.6,8.4-14.4,12.6c-1.7,1.5-3.4,3-5.1,4.5c-0.5,0.4-0.2,1.4,0.4,1.5l16.1,3.8
						c6.7,1.6,13.3,3.1,20,4.7c0.2,0.1,0.5,0.1,0.7,0.2C590.9,312.2,591.7,311.4,591.2,310.7 M555.5,302c4.4-3.8,8.8-7.7,13.1-11.5
						c1.4-1.3,2.9-2.5,4.3-3.8c3.2,4.7,6.3,9.5,9.5,14.2c2,2.9,3.9,5.9,5.9,8.8c-4.6-1.1-9.2-2.2-13.8-3.2
						C568.2,305,561.9,303.5,555.5,302"/>
				</g>
			</g>
		</g>
	</g>
</g>
</svg>
